<?xml version="1.0" encoding="UTF-8" standalone="no"?>
<svg
   xmlns:dc="http://purl.org/dc/elements/1.1/"
   xmlns:cc="http://creativecommons.org/ns#"
   xmlns:rdf="http://www.w3.org/1999/02/22-rdf-syntax-ns#"
   xmlns:svg="http://www.w3.org/2000/svg"
   xmlns="http://www.w3.org/2000/svg"
   xmlns:sodipodi="http://sodipodi.sourceforge.net/DTD/sodipodi-0.dtd"
   xmlns:inkscape="http://www.inkscape.org/namespaces/inkscape"
   version="1.1"
   width="171.04825"
   height="56.067589"
   id="svg154"
   sodipodi:docname="logo.svg"
   inkscape:version="0.92.4 (5da689c313, 2019-01-14)">
  <metadata
     id="metadata160">
    <rdf:RDF>
      <cc:Work
         rdf:about="">
        <dc:format>image/svg+xml</dc:format>
        <dc:type
           rdf:resource="http://purl.org/dc/dcmitype/StillImage" />
        <dc:title></dc:title>
      </cc:Work>
    </rdf:RDF>
  </metadata>
  <defs
     id="defs158" />
  <sodipodi:namedview
     pagecolor="#ffffff"
     bordercolor="#666666"
     borderopacity="1"
     objecttolerance="10"
     gridtolerance="10"
     guidetolerance="10"
     inkscape:pageopacity="0"
     inkscape:pageshadow="2"
     inkscape:window-width="1920"
     inkscape:window-height="1017"
     id="namedview156"
     showgrid="false"
     inkscape:zoom="2"
     inkscape:cx="17.065407"
     inkscape:cy="-0.42939886"
     inkscape:window-x="-8"
     inkscape:window-y="-8"
     inkscape:window-maximized="1"
     inkscape:current-layer="svg154" />
  <g
     id="g174"
     transform="translate(-328.76806,-241.1408)">
    <g
       id="Layer1002">
      <path
         id="path84"
         style="fill:#00398c;fill-rule:evenodd"
         d="m 375.6469,269.4411 c 0.0441,-1.3879 -0.1689,-2.7368 -0.5959,-4.0489 -0.1415,-0.4348 -0.1038,-0.8027 0.0297,-1.2487 0.804,-2.686 0.8895,-5.2329 0.2484,-7.6336 l -5.9129,0.4847 c 0.014,0.0366 0.028,0.0734 0.0415,0.1104 0.1028,0.2808 0.2656,0.5621 0.1613,0.9166 -0.3891,0.0513 -0.6446,-0.2071 -0.9325,-0.361 -2.4351,-1.3007 -5.0483,-1.8091 -7.7681,-1.5097 -3.155,0.3473 -5.9207,1.6257 -8.2059,3.8765 -0.5208,0.5128 -0.5406,0.4957 -1.0524,0.0242 -0.1833,-0.1688 -0.3523,-0.3533 -0.5367,-0.5209 -2.2205,-2.0178 -4.8479,-3.1468 -7.815,-3.4213 -2.8294,-0.2618 -5.516,0.2838 -7.992,1.7289 -0.1335,0.0779 -0.2645,0.1662 -0.4889,0.1143 v 0 c -0.0673,-0.3468 0.0443,-0.6037 0.1393,-0.8653 0.0139,-0.0384 0.0282,-0.0767 0.0428,-0.1147 l -5.9624,0.5843 c -0.3612,2.0912 -0.2137,4.1541 0.3852,6.1916 0.1473,0.5012 0.1312,0.9381 -0.0142,1.445 -1.4702,5.1253 -0.4717,9.7437 3.2482,13.5629 5.7179,5.8709 11.5762,11.6048 17.3635,17.4083 1.376,1.3797 3.0503,1.4173 4.4978,-0.0415 4.763,-4.8004 9.5567,-9.5703 14.3382,-14.3522 1.0136,-1.0137 2.0423,-2.0129 3.0357,-3.046 2.491,-2.5905 3.7244,-5.6961 3.7453,-9.2839 z m -40.6714,1.8188 v 0 c 0.3397,-0.0503 0.5867,0.1689 0.8542,0.3105 2.0778,1.0999 4.2829,1.6354 6.6398,1.5871 3.4487,-0.0706 6.4395,-1.2662 8.9577,-3.6119 1.0097,-0.9405 0.8362,-0.9109 1.8101,0.003 4.211,3.9534 10.5243,4.7842 15.6009,2.0656 0.2606,-0.1396 0.488,-0.3904 0.8315,-0.326 0.1739,0.2591 0.0277,0.4872 -0.0489,0.7166 -0.3726,1.1158 -1.0103,2.0705 -1.8336,2.8956 -4.951,4.9623 -9.9077,9.9188 -14.8677,14.872 -0.622,0.6212 -0.6732,0.6208 -1.2742,0.0197 -4.9999,-5.0014 -10.0286,-9.9743 -14.954,-15.0496 -0.7924,-0.8165 -1.3598,-1.7767 -1.7117,-2.8614 -0.0666,-0.2055 -0.1657,-0.4101 -0.004,-0.6216 z m 7.3085,-9.5405 v 0 c 2.0691,0.0566 3.9153,0.8141 5.4392,2.3414 0.2984,0.2991 0.4233,0.5449 0.061,0.9322 -3.0115,3.2205 -7.9496,3.3507 -11.0891,0.2436 -0.5055,-0.5003 -0.5048,-0.6208 0.009,-1.1465 1.5064,-1.5415 3.3435,-2.3242 5.5799,-2.3707 z m 20.0246,5.8129 v 0 c -2.1507,-0.0582 -3.9908,-0.8327 -5.5133,-2.3624 -0.2721,-0.2734 -0.4072,-0.5042 -0.0869,-0.8633 3.0694,-3.4415 8.2597,-3.3512 11.1985,-0.2126 0.435,0.4646 0.4353,0.5056 -0.0269,0.9925 -1.5116,1.5926 -3.3779,2.3836 -5.5714,2.4458 z"
         inkscape:connector-curvature="0" />
      <path
         id="path86"
         style="fill:#1b1918;fill-opacity:0;fill-rule:evenodd"
         d="m 352.2305,268.8731 c 1.6277,-1.163 3.4635,-3.3496 4.3717,-4.4264 -0.1746,0.2826 -0.042,0.487 0.1931,0.7232 0.9946,0.9993 2.1248,1.6763 3.3887,2.0419 v 5.7913 c -2.5477,-0.4392 -4.9772,-1.605 -6.9467,-3.4541 -0.5765,-0.5412 -0.751,-0.7724 -1.0068,-0.6759 z m 4.6347,-4.7369 0.003,-0.003 c 0.0139,-0.0162 0.0284,-0.0308 0.0433,-0.0444 -0.0153,0.0159 -0.0307,0.0315 -0.0459,0.0475 z"
         inkscape:connector-curvature="0" />
      <path
         id="path88"
         style="fill:#00398c;fill-rule:evenodd"
         d="m 346.7686,265.9103 4.2673,3.987 m 4.883,1.6061 3.7446,-4.4625 m -1.8077,-3.7896 -4.0229,-4.2193 m -7.675,-2.3624 -2.0111,5.3081"
         inkscape:connector-curvature="0" />
      <path
         id="path90"
         style="fill:#1b1918;fill-opacity:0;fill-rule:evenodd"
         d="m 337.4154,263.4387 c -0.2081,0.1508 -0.4397,0.36 -0.6788,0.6184 0.2193,-0.222 0.4455,-0.4281 0.6789,-0.6184 z m -1.0314,1.0298 c -1.2683,1.5898 -1.7471,2.519 -1.8655,3.7735 -0.0912,0.9663 -0.0385,2.1954 0.4611,3.6395 -0.0666,-0.2055 -0.1657,-0.4101 -0.004,-0.6216 v 0 c 0.3397,-0.0503 0.5867,0.1689 0.8542,0.3105 2.0029,1.0602 4.1242,1.596 6.3856,1.59 l 1.8252,-5.9197 c -2.5286,0.6611 -5.3136,0.007 -7.3454,-2.0041 -0.357,-0.3533 -0.4615,-0.5172 -0.3111,-0.7681 z"
         inkscape:connector-curvature="0" />
      <path
         id="path92"
         style="fill:#00398c;fill-rule:evenodd"
         d="m 352.1873,241.1408 c 6.4943,0 12.3989,2.2808 16.6953,5.9682 2.989,2.5652 5.3228,5.7863 6.4523,9.4227 0.2038,0.6567 0.2391,1.3233 0.3661,1.9843 h -5.8198 c -0.7687,-2.7268 -2.4158,-5.1743 -4.6736,-7.112 -3.3083,-2.8393 -7.9099,-4.5955 -13.0203,-4.5955 -5.1104,0 -9.712,1.7562 -13.0203,4.5955 -1.9916,1.7067 -3.5325,3.815 -4.3708,6.1469 -0.1141,0.3176 -0.2153,0.6395 -0.3028,0.9651 h -5.5766 c 0.0423,-0.3092 0.0694,-0.6105 0.121,-0.9043 0.7926,-4.5095 2.7238,-7.301 6.4541,-10.5027 4.2966,-3.6875 10.2012,-5.9682 16.6954,-5.9682 z"
         inkscape:connector-curvature="0" />
      <path
         id="path94"
         style="fill:#1b1918;fill-opacity:0;fill-rule:evenodd"
         d="m 336.1643,257.3826 c -0.2853,0.1405 -0.5679,0.2923 -0.8479,0.4557 -0.1335,0.0779 -0.2645,0.1662 -0.4889,0.1143 v 0 c -0.0754,-0.3102 0.115,-0.8386 0.4019,-1.4554 0.1803,-0.388 0.3768,-0.8333 0.6388,-1.2119 0.0823,-0.227 -5.4954,-0.4293 -6.1549,-0.3647 -1.4077,2.9767 -0.8798,6.7904 -0.2809,8.8279 0.1473,0.5012 0.1312,0.9381 -0.0142,1.445 -0.0662,0.2307 -0.1272,0.4603 -0.1833,0.689 0.0172,-0.0387 2.8242,-6.3562 6.9294,-8.4999 z"
         inkscape:connector-curvature="0" />
      <path
         id="path96"
         style="fill:#1b1918;fill-opacity:0;fill-rule:evenodd"
         d="m 367.2037,263.3614 c 0.2102,0.1524 0.4443,0.3638 0.6859,0.625 -0.2215,-0.2244 -0.4501,-0.4327 -0.686,-0.625 z m 1.0423,1.0407 c 1.2816,1.6066 1.7655,2.5456 1.8852,3.8133 0.0921,0.9765 0.0388,2.2186 -0.466,3.6779 0.0673,-0.2076 0.1674,-0.4144 0.004,-0.6281 v 0 c -0.3433,-0.0509 -0.593,0.1706 -0.8633,0.3137 -2.024,1.0715 -4.1677,1.6129 -6.453,1.6068 l -1.8445,-5.9822 c 2.5554,0.6682 5.3698,0.007 7.423,-2.0252 0.3607,-0.357 0.4663,-0.5227 0.3144,-0.7762 z"
         inkscape:connector-curvature="0" />
      <path
         id="path98"
         style="fill:#1b1918;fill-opacity:0;fill-rule:evenodd"
         d="m 352.3083,260.392 c -1.6277,1.1631 -3.4635,3.3497 -4.3717,4.4265 0.1746,-0.2827 0.042,-0.4871 -0.1931,-0.7232 -0.9946,-0.9994 -2.1248,-1.6764 -3.3887,-2.042 v -5.7913 c 2.5477,0.4393 4.9772,1.6051 6.9467,3.4541 0.5765,0.5413 0.751,0.7725 1.0068,0.6759 z m -4.6347,4.7369 -0.003,0.003 c -0.0139,0.0163 -0.0284,0.0309 -0.0433,0.0445 0.0152,-0.0159 0.0307,-0.0315 0.0459,-0.0476 z"
         inkscape:connector-curvature="0" />
      <path
         id="path100"
         style="fill:#1b1918;fill-opacity:0;fill-rule:evenodd"
         d="m 368.2825,257.4529 c 0.2897,0.1405 0.5767,0.2923 0.861,0.4557 0.1355,0.0779 0.2685,0.1662 0.4964,0.1143 v 0 c 0.0765,-0.3102 -0.1169,-0.8386 -0.4081,-1.4555 -0.1831,-0.3879 -0.3826,-0.8332 -0.6487,-1.2118 -0.0835,-0.227 5.58,-0.4294 6.2496,-0.3647 1.4294,2.9767 0.8934,6.7904 0.2853,8.8279 -0.1496,0.5012 -0.1332,0.938 0.0144,1.445 0.0672,0.2307 0.1291,0.4603 0.1861,0.689 -0.0175,-0.0387 -2.8677,-6.3562 -7.036,-8.4999 z"
         inkscape:connector-curvature="0" />
    </g>
    <path
       id="path103"
       style="fill:#ffffff;fill-rule:evenodd"
       d="m 398.6858,260.8089 c 0.5817,-0.5051 0.9335,-1.2092 0.9335,-2.0967 0,-1.8519 -1.5151,-3.0609 -3.382,-3.0609 h -4.1936 v 10.713 h 4.4994 c 1.9131,0 3.4589,-1.2396 3.4589,-3.1374 0,-1.0865 -0.5202,-1.9131 -1.3162,-2.418 z m -2.4485,-2.8621 c 0.566,0 0.9334,0.398 0.9334,0.949 0,0.5511 -0.3827,0.9488 -0.9334,0.9488 h -1.7448 v -1.8978 z m 0.3058,6.1217 h -2.0506 v -2.0506 h 2.0506 c 0.6123,0 1.0103,0.4286 1.0103,1.0253 0,0.597 -0.398,1.0253 -1.0103,1.0253 z m 4.6831,-8.4172 v 10.713 h 2.4489 v -10.713 z m 10.2541,0 v 5.8156 l -4.1324,-5.8156 h -1.8365 v 10.713 h 2.4488 v -5.8156 l 4.1321,5.8156 h 1.8366 v -10.713 z m 9.3966,10.9273 c 3.0761,0 5.5706,-2.4183 5.5706,-5.5709 0,-3.1525 -2.4945,-5.5707 -5.5706,-5.5707 -3.0762,0 -5.5707,2.4182 -5.5707,5.5707 0,3.1526 2.4945,5.5709 5.5707,5.5709 z m 0,-2.3876 c -1.7448,0 -3.1221,-1.2702 -3.1221,-3.1833 0,-1.9129 1.3773,-3.1831 3.1221,-3.1831 1.7447,0 3.122,1.2702 3.122,3.1831 0,1.9131 -1.3773,3.1833 -3.122,3.1833 z m 12.0597,2.3876 c 1.959,0 3.6731,-0.9644 4.5912,-2.4795 l -2.1121,-1.2243 c -0.4589,0.8266 -1.3926,1.3162 -2.4791,1.3162 -1.8978,0 -3.1221,-1.2702 -3.1221,-3.1833 0,-1.9129 1.2243,-3.1831 3.1221,-3.1831 1.0865,0 2.0049,0.4896 2.4791,1.3162 l 2.1121,-1.2243 c -0.9334,-1.5151 -2.6475,-2.4795 -4.5912,-2.4795 -3.2293,0 -5.5707,2.4182 -5.5707,5.5707 0,3.1526 2.3414,5.5709 5.5707,5.5709 z m 9.7948,0 c 2.3567,0 4.1321,-1.3774 4.1321,-3.6732 v -7.2541 h -2.4486 v 7.0398 c 0,0.8113 -0.3827,1.4999 -1.6835,1.4999 -1.3008,0 -1.6835,-0.6886 -1.6835,-1.4999 v -7.0398 h -2.4488 v 7.2541 c 0,2.2958 1.7753,3.6732 4.1323,3.6732 z m 8.3409,-2.571 v -8.3563 h -2.4488 v 10.713 h 6.2748 v -2.3567 z m 12.0138,2.3567 h 2.6782 l -3.6422,-10.713 H 459 l -3.6425,10.713 h 2.6782 l 0.5357,-1.6835 h 3.979 z m -3.7802,-3.979 1.2551,-3.9334 1.2549,3.9334 z m 13.0087,3.979 h 2.6323 l -2.2805,-3.9331 c 1.1786,-0.597 1.9743,-1.7906 1.9743,-3.1068 0,-2.0355 -1.6376,-3.6731 -3.6728,-3.6731 h -4.2854 v 10.713 h 2.4488 v -3.5201 h 1.1631 z m -3.1833,-8.4175 h 1.8366 c 0.6732,0 1.2243,0.597 1.2243,1.3776 0,0.7804 -0.5511,1.3774 -1.2243,1.3774 h -1.8366 z m 8.341,8.6318 c 0.7956,0 1.4538,-0.6582 1.4538,-1.4539 0,-0.796 -0.6582,-1.4539 -1.4538,-1.4539 -0.796,0 -1.4539,0.6579 -1.4539,1.4539 0,0.7957 0.6579,1.4539 1.4539,1.4539 z m 13.7735,-10.9273 h -2.4486 l -2.9078,4.7597 -2.9077,-4.7597 h -2.4489 v 10.713 h 2.4489 v -6.2289 l 2.77,4.5454 h 0.2755 l 2.77,-4.5454 v 6.2289 h 2.4486 z m 4.2854,8.3563 v -1.8978 h 3.8259 v -2.3264 h -3.8259 v -1.7754 h 4.2086 v -2.3567 h -6.6574 v 10.713 h 6.7339 v -2.3567 z"
       inkscape:connector-curvature="0" />
    <path
       id="path105"
       style="fill:#ffffff;fill-rule:evenodd"
       d="m 396.0989,271.7422 h -3.7468 v 4.5363 h 0.4538 v -4.0916 h 2.8304 v 4.0916 h 0.4626 z m 3.8016,-0.0998 c -0.8802,0 -1.5786,0.4538 -1.9505,1.1523 v -1.0525 h -0.4539 v 6.3507 h 0.4539 v -2.8669 c 0.3719,0.6987 1.0703,1.1522 1.9505,1.1522 1.2971,0 2.3496,-1.0253 2.3496,-2.3677 0,-1.3428 -1.0525,-2.3681 -2.3496,-2.3681 z m -0.0272,4.3004 c -1.0798,0 -1.9233,-0.8529 -1.9233,-1.9323 0,-1.0798 0.8435,-1.9324 1.9233,-1.9324 1.0794,0 1.9233,0.8526 1.9233,1.9324 0,1.0794 -0.8439,1.9323 -1.9233,1.9323 z m 5.5522,0.4354 c 1.3153,0 2.3768,-1.0253 2.3768,-2.3677 0,-1.3428 -1.0615,-2.3681 -2.3768,-2.3681 -1.3246,0 -2.3862,1.0253 -2.3862,2.3681 0,1.3424 1.0616,2.3677 2.3862,2.3677 z m 0,-0.4354 c -1.0797,0 -1.9236,-0.8529 -1.9236,-1.9323 0,-1.0798 0.8439,-1.9324 1.9236,-1.9324 1.0794,0 1.9142,0.8526 1.9142,1.9324 0,1.0794 -0.8348,1.9323 -1.9142,1.9323 z m 6.8131,-4.2006 -2.8939,3.7471 v -3.7471 h -0.4539 v 4.5363 h 0.3994 l 2.8849,-3.7469 v 3.7469 h 0.4626 v -4.5363 z m 3.9738,2.1957 c 0.4173,-0.1996 0.635,-0.5899 0.635,-1.0344 0,-0.6712 -0.5624,-1.2611 -1.5242,-1.2611 -0.8254,0 -1.3609,0.3994 -1.6058,0.9527 l 0.381,0.2177 c 0.1907,-0.4717 0.6261,-0.7347 1.2248,-0.7347 0.644,0 1.0707,0.3628 1.0707,0.8436 0,0.5079 -0.3632,0.8348 -0.9528,0.8348 h -0.4535 v 0.4444 h 0.6259 c 0.6171,0 0.9981,0.3447 0.9981,0.8346 0,0.5264 -0.4354,0.9073 -1.2067,0.9073 -0.7892,0 -1.2068,-0.3537 -1.3791,-0.862 l -0.3901,0.2268 c 0.2268,0.599 0.7532,1.0706 1.7692,1.0706 1.116,0 1.6693,-0.6259 1.6693,-1.3155 0,-0.5171 -0.3084,-0.9434 -0.8618,-1.1248 z m 4.654,0 c 0.39,-0.1905 0.5805,-0.5627 0.5805,-1.0072 0,-0.6621 -0.4626,-1.1885 -1.3516,-1.1885 h -2.0233 v 4.5363 h 2.1957 c 0.9434,0 1.3969,-0.5624 1.3969,-1.2521 0,-0.517 -0.2721,-0.9162 -0.7982,-1.0885 z m -0.7711,-1.751 c 0.5715,0 0.889,0.2903 0.889,0.7711 0,0.5079 -0.3084,0.7985 -0.889,0.7985 h -1.5695 v -1.5696 z m 0.1724,3.6471 h -1.7419 v -1.6331 h 1.7419 c 0.5987,0 0.9434,0.3085 0.9434,0.8074 0,0.5173 -0.3357,0.8257 -0.9434,0.8257 z m 4.4818,0.5442 c 1.3153,0 2.3769,-1.0253 2.3769,-2.3677 0,-1.3428 -1.0616,-2.3681 -2.3769,-2.3681 -1.3246,0 -2.3862,1.0253 -2.3862,2.3681 0,1.3424 1.0616,2.3677 2.3862,2.3677 z m 0,-0.4354 c -1.0797,0 -1.9235,-0.8529 -1.9235,-1.9323 0,-1.0798 0.8438,-1.9324 1.9235,-1.9324 1.0795,0 1.9143,0.8526 1.9143,1.9324 0,1.0794 -0.8348,1.9323 -1.9143,1.9323 z m 7.0036,-0.1088 v -4.0918 h -3.1842 v 2.2683 c 0,0.898 -0.1814,1.3881 -0.4991,1.8235 h -0.5261 v 1.6602 h 0.4626 v -1.2157 h 3.9194 v 1.2157 h 0.4626 v -1.6602 z m -3.1207,0 c 0.254,-0.4629 0.3901,-1.0162 0.3901,-1.8235 v -1.8236 h 2.268 v 3.6471 z m 6.6501,0.5442 c 0.889,0 1.6509,-0.4535 2.014,-1.1522 l -0.3812,-0.2268 c -0.2994,0.5627 -0.898,0.9436 -1.6328,0.9436 -1.0978,0 -1.9236,-0.8529 -1.9236,-1.9323 0,-1.0798 0.8258,-1.9324 1.9236,-1.9324 0.7257,0 1.3425,0.3719 1.6056,0.9433 l 0.3722,-0.2177 c -0.3269,-0.7075 -1.0888,-1.1613 -1.9778,-1.1613 -1.37,0 -2.3862,1.0253 -2.3862,2.3681 0,1.3424 1.0162,2.3677 2.3862,2.3677 z m 6.0965,-4.636 h -3.7559 v 0.4447 h 1.6512 v 4.0916 h 0.4535 v -4.0916 h 1.6512 z m 3.6108,2.1957 c 0.39,-0.1905 0.5805,-0.5627 0.5805,-1.0072 0,-0.6621 -0.4626,-1.1885 -1.3516,-1.1885 h -2.0233 v 4.5363 h 2.1957 c 0.9434,0 1.3969,-0.5624 1.3969,-1.2521 0,-0.517 -0.2721,-0.9162 -0.7982,-1.0885 z m -0.7711,-1.751 c 0.5715,0 0.889,0.2903 0.889,0.7711 0,0.5079 -0.3084,0.7985 -0.889,0.7985 h -1.5695 v -1.5696 z m 0.1724,3.6471 h -1.7419 v -1.6331 h 1.7419 c 0.5987,0 0.9434,0.3085 0.9434,0.8074 0,0.5173 -0.3357,0.8257 -0.9434,0.8257 z m 4.4818,0.5442 c 1.3153,0 2.3769,-1.0253 2.3769,-2.3677 0,-1.3428 -1.0616,-2.3681 -2.3769,-2.3681 -1.3246,0 -2.3862,1.0253 -2.3862,2.3681 0,1.3424 1.0616,2.3677 2.3862,2.3677 z m 0,-0.4354 c -1.0797,0 -1.9235,-0.8529 -1.9235,-1.9323 0,-1.0798 0.8438,-1.9324 1.9235,-1.9324 1.0795,0 1.9143,0.8526 1.9143,1.9324 0,1.0794 -0.8348,1.9323 -1.9143,1.9323 z m 9.2353,-4.2006 -2.8939,3.7471 v -3.7471 h -0.4538 v 4.5363 h 0.3994 l 2.8848,-3.7469 v 3.7469 h 0.4626 v -4.5363 z m 7.9654,0 h -3.7469 v 4.5363 h 0.4539 v -4.0916 h 2.8304 v 4.0916 h 0.4626 z m 3.8015,-0.0998 c -0.8801,0 -1.5786,0.4538 -1.9505,1.1523 v -1.0525 h -0.4538 v 6.3507 h 0.4538 v -2.8669 c 0.3719,0.6987 1.0704,1.1522 1.9505,1.1522 1.2972,0 2.3497,-1.0253 2.3497,-2.3677 0,-1.3428 -1.0525,-2.3681 -2.3497,-2.3681 z m -0.0272,4.3004 c -1.0797,0 -1.9233,-0.8529 -1.9233,-1.9323 0,-1.0798 0.8436,-1.9324 1.9233,-1.9324 1.0794,0 1.9233,0.8526 1.9233,1.9324 0,1.0794 -0.8439,1.9323 -1.9233,1.9323 z m 5.5522,0.4354 c 1.3153,0 2.3769,-1.0253 2.3769,-2.3677 0,-1.3428 -1.0616,-2.3681 -2.3769,-2.3681 -1.3246,0 -2.3862,1.0253 -2.3862,2.3681 0,1.3424 1.0616,2.3677 2.3862,2.3677 z m 0,-0.4354 c -1.0797,0 -1.9236,-0.8529 -1.9236,-1.9323 0,-1.0798 0.8439,-1.9324 1.9236,-1.9324 1.0795,0 1.9143,0.8526 1.9143,1.9324 0,1.0794 -0.8348,1.9323 -1.9143,1.9323 z m 7.0036,-0.1088 v -4.0918 h -3.1842 v 2.2683 c 0,0.898 -0.1814,1.3881 -0.4992,1.8235 h -0.5261 v 1.6602 h 0.4627 v -1.2157 h 3.9194 v 1.2157 h 0.4626 v -1.6602 z m -3.1207,0 c 0.254,-0.4629 0.3901,-1.0162 0.3901,-1.8235 v -1.8236 h 2.268 v 3.6471 z m 8.5643,-4.0918 v 1.0253 c -0.3812,-0.6804 -1.0797,-1.1251 -1.9505,-1.1251 -1.2883,0 -2.3499,1.0253 -2.3499,2.3681 0,1.3424 1.0616,2.3677 2.3499,2.3677 0.8708,0 1.5693,-0.4444 1.9505,-1.125 v 1.0253 h 0.4627 v -4.5363 z m -1.9142,4.2006 c -1.0797,0 -1.9236,-0.8529 -1.9236,-1.9323 0,-1.0798 0.8439,-1.9324 1.9236,-1.9324 1.0794,0 1.9142,0.8526 1.9142,1.9324 0,1.0794 -0.8348,1.9323 -1.9142,1.9323 z m 8.8815,0.3357 -2.141,-2.3588 2.0503,-2.1775 h -0.5624 l -1.9142,2.0506 v -2.0506 h -0.4626 v 2.0506 l -1.9146,-2.0506 h -0.5624 l 2.0594,2.1775 -2.1501,2.3588 h 0.5624 l 2.0053,-2.2318 v 2.2318 h 0.4626 v -2.2318 l 2.0049,2.2318 z m 4.5363,-4.5363 v 1.0253 c -0.3813,-0.6804 -1.0797,-1.1251 -1.9505,-1.1251 -1.2884,0 -2.3499,1.0253 -2.3499,2.3681 0,1.3424 1.0615,2.3677 2.3499,2.3677 0.8708,0 1.5692,-0.4444 1.9505,-1.125 v 1.0253 h 0.4626 v -4.5363 z m -1.9142,4.2006 c -1.0798,0 -1.9236,-0.8529 -1.9236,-1.9323 0,-1.0798 0.8438,-1.9324 1.9236,-1.9324 1.0794,0 1.9142,0.8526 1.9142,1.9324 0,1.0794 -0.8348,1.9323 -1.9142,1.9323 z m -103.0068,10.8958 c 0.8889,0 1.6509,-0.4535 2.014,-1.1522 l -0.3813,-0.2268 c -0.2993,0.5627 -0.898,0.9436 -1.6327,0.9436 -1.0979,0 -1.9236,-0.8529 -1.9236,-1.9323 0,-1.0798 0.8257,-1.9324 1.9236,-1.9324 0.7257,0 1.3425,0.3719 1.6055,0.9434 l 0.3722,-0.2177 c -0.3268,-0.7076 -1.0888,-1.1614 -1.9777,-1.1614 -1.37,0 -2.3862,1.0253 -2.3862,2.3681 0,1.3425 1.0162,2.3677 2.3862,2.3677 z m 7.3939,-4.636 h -0.5443 l -1.6512,2.6039 -1.6511,-2.6039 h -0.5355 v 4.5363 h 0.4538 v -3.8648 l 1.7056,2.6943 h 0.0635 l 1.6966,-2.6761 v 3.8466 h 0.4626 z m 3.4747,4.636 c 1.3153,0 2.3768,-1.0252 2.3768,-2.3677 0,-1.3428 -1.0615,-2.3681 -2.3768,-2.3681 -1.3246,0 -2.3862,1.0253 -2.3862,2.3681 0,1.3425 1.0616,2.3677 2.3862,2.3677 z m 0,-0.4354 c -1.0797,0 -1.9236,-0.8529 -1.9236,-1.9323 0,-1.0798 0.8439,-1.9324 1.9236,-1.9324 1.0794,0 1.9142,0.8526 1.9142,1.9324 0,1.0794 -0.8348,1.9323 -1.9142,1.9323 z m 6.4593,-4.2006 h -3.7559 v 0.4447 h 1.6512 v 4.0916 h 0.4535 v -4.0916 h 1.6512 z m 3.2207,-0.0998 c -0.8801,0 -1.5786,0.4538 -1.9505,1.1523 v -1.0525 h -0.4538 v 6.3507 h 0.4538 v -2.8669 c 0.3719,0.6987 1.0704,1.1522 1.9505,1.1522 1.2972,0 2.3497,-1.0252 2.3497,-2.3677 0,-1.3428 -1.0525,-2.3681 -2.3497,-2.3681 z m -0.0272,4.3004 c -1.0797,0 -1.9233,-0.8529 -1.9233,-1.9323 0,-1.0798 0.8436,-1.9324 1.9233,-1.9324 1.0794,0 1.9233,0.8526 1.9233,1.9324 0,1.0794 -0.8439,1.9323 -1.9233,1.9323 z m 5.5522,0.4354 c 1.3153,0 2.3769,-1.0252 2.3769,-2.3677 0,-1.3428 -1.0616,-2.3681 -2.3769,-2.3681 -1.3246,0 -2.3862,1.0253 -2.3862,2.3681 0,1.3425 1.0616,2.3677 2.3862,2.3677 z m 0,-0.4354 c -1.0797,0 -1.9236,-0.8529 -1.9236,-1.9323 0,-1.0798 0.8439,-1.9324 1.9236,-1.9324 1.0795,0 1.9143,0.8526 1.9143,1.9324 0,1.0794 -0.8348,1.9323 -1.9143,1.9323 z m 6.2598,-2.0049 c 0.39,-0.1905 0.5805,-0.5627 0.5805,-1.0072 0,-0.6621 -0.4626,-1.1885 -1.3515,-1.1885 h -2.0234 v 4.5363 h 2.1957 c 0.9434,0 1.3969,-0.5624 1.3969,-1.2521 0,-0.517 -0.2721,-0.9162 -0.7982,-1.0885 z m -0.771,-1.751 c 0.5714,0 0.8889,0.2903 0.8889,0.7711 0,0.5079 -0.3084,0.7985 -0.8889,0.7985 h -1.5696 v -1.5696 z m 0.1723,3.6471 h -1.7419 v -1.633 h 1.7419 c 0.5987,0 0.9434,0.3084 0.9434,0.8073 0,0.5173 -0.3357,0.8257 -0.9434,0.8257 z m 4.2004,-2.3318 h -1.3425 v -1.76 h -0.4538 v 4.5363 h 1.7963 c 0.8076,0 1.497,-0.5534 1.497,-1.3882 0,-0.8345 -0.6894,-1.3881 -1.497,-1.3881 z m 2.1957,-1.76 v 4.5363 h 0.4535 v -4.5363 z m -2.1957,4.0918 h -1.3425 v -1.887 h 1.3425 c 0.5717,0 1.0343,0.3628 1.0343,0.9433 0,0.5718 -0.4626,0.9437 -1.0343,0.9437 z m 7.7295,0.4445 -1.8054,-2.3406 1.6965,-2.1957 h -0.5442 l -1.4335,1.8419 -1.4244,-1.8419 h -0.5533 l 1.7056,2.2048 -1.8145,2.3315 h 0.5533 l 1.5333,-1.9778 1.5333,1.9778 z m 5.3164,0.1088 c 1.2792,0 2.2048,-0.898 2.2048,-2.1138 0,-1.243 -0.9074,-2.1228 -2.1048,-2.1228 -0.6261,0 -1.3972,0.2812 -1.8507,0.9887 0.1451,-0.7983 0.517,-1.2064 1.406,-1.6058 0.9255,-0.4264 1.8779,-0.6441 2.0321,-1.5149 l -0.3628,-0.2089 c -0.127,0.7713 -0.9252,0.8892 -1.9142,1.3609 -1.4426,0.7078 -1.6966,1.4698 -1.6966,2.8851 0,1.4063 0.9981,2.3315 2.2862,2.3315 z m 0,-0.4535 c -1.0341,0 -1.7963,-0.7351 -1.7963,-1.7782 0.0728,-0.9618 0.9617,-1.5605 1.8419,-1.5605 1.0069,0 1.6963,0.7076 1.6963,1.6784 0,0.9615 -0.7166,1.6603 -1.7419,1.6603 z m 6.5503,-4.1916 -2.8939,3.7471 v -3.7471 h -0.4539 v 4.5363 h 0.3995 l 2.8848,-3.7469 v 3.7469 h 0.4626 v -4.5363 z m 5.0805,0 v 2.0506 h -2.8304 v -2.0506 h -0.4538 v 4.5363 h 0.4538 v -2.0503 h 2.8304 v 2.0503 h 0.4626 v -4.5363 z m 3.9376,4.636 c 1.3153,0 2.3769,-1.0252 2.3769,-2.3677 0,-1.3428 -1.0616,-2.3681 -2.3769,-2.3681 -1.3246,0 -2.3862,1.0253 -2.3862,2.3681 0,1.3425 1.0616,2.3677 2.3862,2.3677 z m 0,-0.4354 c -1.0797,0 -1.9236,-0.8529 -1.9236,-1.9323 0,-1.0798 0.8439,-1.9324 1.9236,-1.9324 1.0794,0 1.9142,0.8526 1.9142,1.9324 0,1.0794 -0.8348,1.9323 -1.9142,1.9323 z m 6.9401,0.3357 -2.5311,-2.3587 2.4404,-2.1776 h -0.635 l -2.2952,2.0596 v -2.0596 h -0.4538 v 4.5363 h 0.4538 v -2.2318 l 2.4041,2.2318 z m 4.5904,-4.5363 h -3.1932 v 2.6311 c 0,1.1704 -0.3722,1.5423 -1.0707,1.4788 v 0.4264 c 0.853,0.0635 1.5242,-0.3175 1.5242,-1.9052 v -2.1864 h 2.2862 v 4.0916 h 0.4535 z m 3.4387,-0.0998 c -1.3881,0 -2.3499,1.0344 -2.3499,2.3681 0,1.37 0.989,2.3677 2.3862,2.3677 0.898,0 1.6055,-0.4081 1.9777,-1.0252 l -0.3994,-0.2359 c -0.263,0.4811 -0.8254,0.8257 -1.5692,0.8257 -1.0344,0 -1.8145,-0.6715 -1.9236,-1.6965 h 4.1099 c 0,-0.0726 0.009,-0.1451 0.009,-0.2177 0,-1.243 -0.862,-2.3862 -2.2408,-2.3862 z m 0,0.4357 c 0.8889,0 1.669,0.6168 1.7688,1.7237 h -3.647 c 0.091,-1.0071 0.8438,-1.7237 1.8782,-1.7237 z m 4.019,-1.1251 h 2.2952 v -0.3991 h -2.2952 z m 2.6308,0.7892 -2.8939,3.7471 v -3.7471 h -0.4538 v 4.5363 h 0.3994 l 2.8848,-3.7469 v 3.7469 h 0.4626 v -4.5363 z"
       inkscape:connector-curvature="0" />
  </g>
</svg>
