<?xml version="1.0" encoding="UTF-8" standalone="no"?>
<!-- Created with Inkscape (http://www.inkscape.org/) -->

<svg
   xmlns:dc="http://purl.org/dc/elements/1.1/"
   xmlns:cc="http://creativecommons.org/ns#"
   xmlns:rdf="http://www.w3.org/1999/02/22-rdf-syntax-ns#"
   xmlns:svg="http://www.w3.org/2000/svg"
   xmlns="http://www.w3.org/2000/svg"
   xmlns:sodipodi="http://sodipodi.sourceforge.net/DTD/sodipodi-0.dtd"
   xmlns:inkscape="http://www.inkscape.org/namespaces/inkscape"
   width="58.833443mm"
   height="19.284914mm"
   viewBox="0 0 58.833443 19.284914"
   version="1.1"
   id="svg3849"
   inkscape:version="0.92.4 (5da689c313, 2019-01-14)"
   sodipodi:docname="logo.svg">
  <defs
     id="defs3843" />
  <sodipodi:namedview
     id="base"
     pagecolor="#ffffff"
     bordercolor="#666666"
     borderopacity="1.0"
     inkscape:pageopacity="0.0"
     inkscape:pageshadow="2"
     inkscape:zoom="0.35"
     inkscape:cx="-384.53293"
     inkscape:cy="-97.841781"
     inkscape:document-units="mm"
     inkscape:current-layer="layer1"
     showgrid="false"
     inkscape:window-width="1920"
     inkscape:window-height="1017"
     inkscape:window-x="-8"
     inkscape:window-y="-8"
     inkscape:window-maximized="1" />
  <metadata
     id="metadata3846">
    <rdf:RDF>
      <cc:Work
         rdf:about="">
        <dc:format>image/svg+xml</dc:format>
        <dc:type
           rdf:resource="http://purl.org/dc/dcmitype/StillImage" />
        <dc:title></dc:title>
      </cc:Work>
    </rdf:RDF>
  </metadata>
  <g
     inkscape:label="Layer 1"
     inkscape:groupmode="layer"
     id="layer1"
     transform="translate(-78.684457,-103.66111)">
    <g
       transform="matrix(0.34395833,0,0,0.34395833,-34.398054,20.718728)"
       id="Layer1002">
      <path
         id="path84"
         style="fill:#00398c;fill-rule:evenodd"
         d="m 375.6469,269.4411 c 0.0441,-1.3879 -0.1689,-2.7368 -0.5959,-4.0489 -0.1415,-0.4348 -0.1038,-0.8027 0.0297,-1.2487 0.804,-2.686 0.8895,-5.2329 0.2484,-7.6336 l -5.9129,0.4847 c 0.014,0.0366 0.028,0.0734 0.0415,0.1104 0.1028,0.2808 0.2656,0.5621 0.1613,0.9166 -0.3891,0.0513 -0.6446,-0.2071 -0.9325,-0.361 -2.4351,-1.3007 -5.0483,-1.8091 -7.7681,-1.5097 -3.155,0.3473 -5.9207,1.6257 -8.2059,3.8765 -0.5208,0.5128 -0.5406,0.4957 -1.0524,0.0242 -0.1833,-0.1688 -0.3523,-0.3533 -0.5367,-0.5209 -2.2205,-2.0178 -4.8479,-3.1468 -7.815,-3.4213 -2.8294,-0.2618 -5.516,0.2838 -7.992,1.7289 -0.1335,0.0779 -0.2645,0.1662 -0.4889,0.1143 v 0 c -0.0673,-0.3468 0.0443,-0.6037 0.1393,-0.8653 0.0139,-0.0384 0.0282,-0.0767 0.0428,-0.1147 l -5.9624,0.5843 c -0.3612,2.0912 -0.2137,4.1541 0.3852,6.1916 0.1473,0.5012 0.1312,0.9381 -0.0142,1.445 -1.4702,5.1253 -0.4717,9.7437 3.2482,13.5629 5.7179,5.8709 11.5762,11.6048 17.3635,17.4083 1.376,1.3797 3.0503,1.4173 4.4978,-0.0415 4.763,-4.8004 9.5567,-9.5703 14.3382,-14.3522 1.0136,-1.0137 2.0423,-2.0129 3.0357,-3.046 2.491,-2.5905 3.7244,-5.6961 3.7453,-9.2839 z m -40.6714,1.8188 v 0 c 0.3397,-0.0503 0.5867,0.1689 0.8542,0.3105 2.0778,1.0999 4.2829,1.6354 6.6398,1.5871 3.4487,-0.0706 6.4395,-1.2662 8.9577,-3.6119 1.0097,-0.9405 0.8362,-0.9109 1.8101,0.003 4.211,3.9534 10.5243,4.7842 15.6009,2.0656 0.2606,-0.1396 0.488,-0.3904 0.8315,-0.326 0.1739,0.2591 0.0277,0.4872 -0.0489,0.7166 -0.3726,1.1158 -1.0103,2.0705 -1.8336,2.8956 -4.951,4.9623 -9.9077,9.9188 -14.8677,14.872 -0.622,0.6212 -0.6732,0.6208 -1.2742,0.0197 -4.9999,-5.0014 -10.0286,-9.9743 -14.954,-15.0496 -0.7924,-0.8165 -1.3598,-1.7767 -1.7117,-2.8614 -0.0666,-0.2055 -0.1657,-0.4101 -0.004,-0.6216 z m 7.3085,-9.5405 v 0 c 2.0691,0.0566 3.9153,0.8141 5.4392,2.3414 0.2984,0.2991 0.4233,0.5449 0.061,0.9322 -3.0115,3.2205 -7.9496,3.3507 -11.0891,0.2436 -0.5055,-0.5003 -0.5048,-0.6208 0.009,-1.1465 1.5064,-1.5415 3.3435,-2.3242 5.5799,-2.3707 z m 20.0246,5.8129 v 0 c -2.1507,-0.0582 -3.9908,-0.8327 -5.5133,-2.3624 -0.2721,-0.2734 -0.4072,-0.5042 -0.0869,-0.8633 3.0694,-3.4415 8.2597,-3.3512 11.1985,-0.2126 0.435,0.4646 0.4353,0.5056 -0.0269,0.9925 -1.5116,1.5926 -3.3779,2.3836 -5.5714,2.4458 z"
         inkscape:connector-curvature="0" />
      <path
         id="path86"
         style="fill:#1b1918;fill-opacity:0;fill-rule:evenodd"
         d="m 352.2305,268.8731 c 1.6277,-1.163 3.4635,-3.3496 4.3717,-4.4264 -0.1746,0.2826 -0.042,0.487 0.1931,0.7232 0.9946,0.9993 2.1248,1.6763 3.3887,2.0419 v 5.7913 c -2.5477,-0.4392 -4.9772,-1.605 -6.9467,-3.4541 -0.5765,-0.5412 -0.751,-0.7724 -1.0068,-0.6759 z m 4.6347,-4.7369 0.003,-0.003 c 0.0139,-0.0162 0.0284,-0.0308 0.0433,-0.0444 -0.0153,0.0159 -0.0307,0.0315 -0.0459,0.0475 z"
         inkscape:connector-curvature="0" />
      <path
         id="path88"
         style="fill:#00398c;fill-rule:evenodd"
         d="m 346.7686,265.9103 4.2673,3.987 m 4.883,1.6061 3.7446,-4.4625 m -1.8077,-3.7896 -4.0229,-4.2193 m -7.675,-2.3624 -2.0111,5.3081"
         inkscape:connector-curvature="0" />
      <path
         id="path90"
         style="fill:#1b1918;fill-opacity:0;fill-rule:evenodd"
         d="m 337.4154,263.4387 c -0.2081,0.1508 -0.4397,0.36 -0.6788,0.6184 0.2193,-0.222 0.4455,-0.4281 0.6789,-0.6184 z m -1.0314,1.0298 c -1.2683,1.5898 -1.7471,2.519 -1.8655,3.7735 -0.0912,0.9663 -0.0385,2.1954 0.4611,3.6395 -0.0666,-0.2055 -0.1657,-0.4101 -0.004,-0.6216 v 0 c 0.3397,-0.0503 0.5867,0.1689 0.8542,0.3105 2.0029,1.0602 4.1242,1.596 6.3856,1.59 l 1.8252,-5.9197 c -2.5286,0.6611 -5.3136,0.007 -7.3454,-2.0041 -0.357,-0.3533 -0.4615,-0.5172 -0.3111,-0.7681 z"
         inkscape:connector-curvature="0" />
      <path
         id="path92"
         style="fill:#00398c;fill-rule:evenodd"
         d="m 352.1873,241.1408 c 6.4943,0 12.3989,2.2808 16.6953,5.9682 2.989,2.5652 5.3228,5.7863 6.4523,9.4227 0.2038,0.6567 0.2391,1.3233 0.3661,1.9843 h -5.8198 c -0.7687,-2.7268 -2.4158,-5.1743 -4.6736,-7.112 -3.3083,-2.8393 -7.9099,-4.5955 -13.0203,-4.5955 -5.1104,0 -9.712,1.7562 -13.0203,4.5955 -1.9916,1.7067 -3.5325,3.815 -4.3708,6.1469 -0.1141,0.3176 -0.2153,0.6395 -0.3028,0.9651 h -5.5766 c 0.0423,-0.3092 0.0694,-0.6105 0.121,-0.9043 0.7926,-4.5095 2.7238,-7.301 6.4541,-10.5027 4.2966,-3.6875 10.2012,-5.9682 16.6954,-5.9682 z"
         inkscape:connector-curvature="0" />
      <path
         id="path94"
         style="fill:#1b1918;fill-opacity:0;fill-rule:evenodd"
         d="m 336.1643,257.3826 c -0.2853,0.1405 -0.5679,0.2923 -0.8479,0.4557 -0.1335,0.0779 -0.2645,0.1662 -0.4889,0.1143 v 0 c -0.0754,-0.3102 0.115,-0.8386 0.4019,-1.4554 0.1803,-0.388 0.3768,-0.8333 0.6388,-1.2119 0.0823,-0.227 -5.4954,-0.4293 -6.1549,-0.3647 -1.4077,2.9767 -0.8798,6.7904 -0.2809,8.8279 0.1473,0.5012 0.1312,0.9381 -0.0142,1.445 -0.0662,0.2307 -0.1272,0.4603 -0.1833,0.689 0.0172,-0.0387 2.8242,-6.3562 6.9294,-8.4999 z"
         inkscape:connector-curvature="0" />
      <path
         id="path96"
         style="fill:#1b1918;fill-opacity:0;fill-rule:evenodd"
         d="m 367.2037,263.3614 c 0.2102,0.1524 0.4443,0.3638 0.6859,0.625 -0.2215,-0.2244 -0.4501,-0.4327 -0.686,-0.625 z m 1.0423,1.0407 c 1.2816,1.6066 1.7655,2.5456 1.8852,3.8133 0.0921,0.9765 0.0388,2.2186 -0.466,3.6779 0.0673,-0.2076 0.1674,-0.4144 0.004,-0.6281 v 0 c -0.3433,-0.0509 -0.593,0.1706 -0.8633,0.3137 -2.024,1.0715 -4.1677,1.6129 -6.453,1.6068 l -1.8445,-5.9822 c 2.5554,0.6682 5.3698,0.007 7.423,-2.0252 0.3607,-0.357 0.4663,-0.5227 0.3144,-0.7762 z"
         inkscape:connector-curvature="0" />
      <path
         id="path98"
         style="fill:#1b1918;fill-opacity:0;fill-rule:evenodd"
         d="m 352.3083,260.392 c -1.6277,1.1631 -3.4635,3.3497 -4.3717,4.4265 0.1746,-0.2827 0.042,-0.4871 -0.1931,-0.7232 -0.9946,-0.9994 -2.1248,-1.6764 -3.3887,-2.042 v -5.7913 c 2.5477,0.4393 4.9772,1.6051 6.9467,3.4541 0.5765,0.5413 0.751,0.7725 1.0068,0.6759 z m -4.6347,4.7369 -0.003,0.003 c -0.0139,0.0163 -0.0284,0.0309 -0.0433,0.0445 0.0152,-0.0159 0.0307,-0.0315 0.0459,-0.0476 z"
         inkscape:connector-curvature="0" />
      <path
         id="path100"
         style="fill:#1b1918;fill-opacity:0;fill-rule:evenodd"
         d="m 368.2825,257.4529 c 0.2897,0.1405 0.5767,0.2923 0.861,0.4557 0.1355,0.0779 0.2685,0.1662 0.4964,0.1143 v 0 c 0.0765,-0.3102 -0.1169,-0.8386 -0.4081,-1.4555 -0.1831,-0.3879 -0.3826,-0.8332 -0.6487,-1.2118 -0.0835,-0.227 5.58,-0.4294 6.2496,-0.3647 1.4294,2.9767 0.8934,6.7904 0.2853,8.8279 -0.1496,0.5012 -0.1332,0.938 0.0144,1.445 0.0672,0.2307 0.1291,0.4603 0.1861,0.689 -0.0175,-0.0387 -2.8677,-6.3562 -7.036,-8.4999 z"
         inkscape:connector-curvature="0" />
    </g>
    <path
       id="path103"
       style="fill:#ffffff;fill-rule:evenodd;stroke-width:0.34395832"
       d="m 102.73325,110.42612 c 0.20008,-0.17373 0.32108,-0.41592 0.32108,-0.72117 0,-0.63698 -0.52113,-1.05283 -1.16326,-1.05283 h -1.44243 v 3.68483 h 1.54761 c 0.65802,0 1.18971,-0.42637 1.18971,-1.07914 0,-0.37371 -0.17892,-0.65802 -0.45271,-0.83169 z m -0.84218,-0.98443 c 0.19467,0 0.32104,0.13689 0.32104,0.3264 0,0.18957 -0.13163,0.32635 -0.32104,0.32635 h -0.60015 v -0.65275 z m 0.10517,2.10559 h -0.70533 v -0.70531 h 0.70533 c 0.2106,0 0.3475,0.14742 0.3475,0.35266 0,0.20534 -0.1369,0.35265 -0.3475,0.35265 z m 1.61079,-2.89516 v 3.68483 h 0.84232 v -3.68483 z m 3.52698,0 v 2.00032 l -1.42137,-2.00032 h -0.63169 v 3.68483 h 0.84229 v -2.00033 l 1.42127,2.00033 h 0.63171 v -3.68483 z m 3.23204,3.75854 c 1.05805,0 1.91605,-0.8318 1.91605,-1.91616 0,-1.08433 -0.858,-1.91609 -1.91605,-1.91609 -1.05809,0 -1.91609,0.83176 -1.91609,1.91609 0,1.08436 0.858,1.91616 1.91609,1.91616 z m 0,-0.82123 c -0.60014,0 -1.07388,-0.43691 -1.07388,-1.09493 0,-0.65795 0.47374,-1.09486 1.07388,-1.09486 0.6001,0 1.07383,0.43691 1.07383,1.09486 0,0.65802 -0.47373,1.09493 -1.07383,1.09493 z m 4.14803,0.82123 c 0.67382,0 1.26339,-0.33172 1.57919,-0.85285 l -0.72648,-0.42111 c -0.15785,0.28433 -0.479,0.45273 -0.85271,0.45273 -0.65277,0 -1.07388,-0.43691 -1.07388,-1.09493 0,-0.65795 0.42111,-1.09486 1.07388,-1.09486 0.37371,0 0.6896,0.16841 0.85271,0.45273 l 0.72648,-0.42111 c -0.32106,-0.52113 -0.91064,-0.85285 -1.57919,-0.85285 -1.11075,0 -1.91608,0.83176 -1.91608,1.91609 0,1.08436 0.80533,1.91616 1.91608,1.91616 z m 3.369,0 c 0.8106,0 1.42128,-0.47377 1.42128,-1.26343 v -2.49511 h -0.84222 v 2.4214 c 0,0.27905 -0.13164,0.51591 -0.57906,0.51591 -0.44742,0 -0.57906,-0.23686 -0.57906,-0.51591 v -2.4214 h -0.84228 v 2.49511 c 0,0.78966 0.61064,1.26343 1.42134,1.26343 z m 2.86892,-0.88432 v -2.87422 h -0.84228 v 3.68483 h 2.15827 v -0.81061 z m 4.13226,0.81061 h 0.92118 l -1.25276,-3.68483 h -1.07388 l -1.25286,3.68483 h 0.92118 l 0.18426,-0.57905 H 124.7 Z m -1.30024,-1.36861 0.43171,-1.35292 0.43162,1.35292 z m 4.47445,1.36861 h 0.90541 l -0.78441,-1.35283 c 0.40539,-0.20533 0.67908,-0.61589 0.67908,-1.0686 0,-0.70013 -0.56326,-1.2634 -1.26329,-1.2634 h -1.474 v 3.68483 h 0.84228 v -1.21076 h 0.40006 z m -1.09493,-2.89526 h 0.63172 c 0.23156,0 0.42111,0.20533 0.42111,0.47383 0,0.26843 -0.18955,0.47376 -0.42111,0.47376 h -0.63172 z m 2.86896,2.96897 c 0.27366,0 0.50006,-0.22639 0.50006,-0.50008 0,-0.27379 -0.2264,-0.50008 -0.50006,-0.50008 -0.27378,0 -0.50007,0.22629 -0.50007,0.50008 0,0.27369 0.22629,0.50008 0.50007,0.50008 z m 4.73751,-3.75854 h -0.84222 l -1.00015,1.63714 -1.00013,-1.63714 h -0.84232 v 3.68483 h 0.84232 v -2.14249 l 0.95277,1.56344 h 0.0948 l 0.95276,-1.56344 v 2.14249 h 0.84221 z m 1.47401,2.87422 v -0.65276 h 1.31595 v -0.80019 h -1.31595 v -0.61066 h 1.44757 v -0.81061 h -2.28986 v 3.68483 h 2.31617 v -0.81061 z"
       inkscape:connector-curvature="0" />
    <path
       id="path105"
       style="fill:#ffffff;fill-rule:evenodd;stroke-width:0.34395832"
       d="m 101.84346,114.18672 h -1.28874 v 1.5603 h 0.15609 v -1.40734 h 0.97353 v 1.40734 h 0.15912 z m 1.30759,-0.0343 c -0.30275,0 -0.54297,0.1561 -0.67089,0.39635 v -0.36203 h -0.15612 v 2.18438 h 0.15612 v -0.98609 c 0.12792,0.24032 0.36814,0.39631 0.67089,0.39631 0.44615,0 0.80816,-0.35267 0.80816,-0.81439 0,-0.46186 -0.36201,-0.81453 -0.80816,-0.81453 z m -0.009,1.47916 c -0.37141,0 -0.66153,-0.29336 -0.66153,-0.66463 0,-0.37141 0.29012,-0.66466 0.66153,-0.66466 0.37127,0 0.66153,0.29325 0.66153,0.66466 0,0.37127 -0.29026,0.66463 -0.66153,0.66463 z m 1.90973,0.14976 c 0.45241,0 0.81752,-0.35267 0.81752,-0.81439 0,-0.46186 -0.36511,-0.81453 -0.81752,-0.81453 -0.45561,0 -0.82076,0.35267 -0.82076,0.81453 0,0.46172 0.36515,0.81439 0.82076,0.81439 z m 0,-0.14976 c -0.37137,0 -0.66164,-0.29336 -0.66164,-0.66463 0,-0.37141 0.29027,-0.66466 0.66164,-0.66466 0.37127,0 0.6584,0.29325 0.6584,0.66466 0,0.37127 -0.28713,0.66463 -0.6584,0.66463 z m 2.34343,-1.44484 -0.99538,1.28885 v -1.28885 h -0.15613 v 1.5603 h 0.13738 l 0.99228,-1.28876 v 1.28876 h 0.15912 v -1.5603 z m 1.36682,0.75524 c 0.14353,-0.0686 0.21841,-0.2029 0.21841,-0.3558 0,-0.23085 -0.19344,-0.43376 -0.52426,-0.43376 -0.28391,0 -0.46809,0.13738 -0.55233,0.3277 l 0.13105,0.0749 c 0.0656,-0.16226 0.21535,-0.25271 0.42128,-0.25271 0.22151,0 0.36828,0.1248 0.36828,0.29016 0,0.17469 -0.12493,0.28713 -0.32773,0.28713 h -0.15599 v 0.15285 h 0.21529 c 0.21225,0 0.34331,0.11856 0.34331,0.28708 0,0.18105 -0.14976,0.31207 -0.41505,0.31207 -0.27146,0 -0.41509,-0.12168 -0.47436,-0.29649 l -0.13419,0.078 c 0.078,0.20603 0.25908,0.36823 0.60855,0.36823 0.38385,0 0.57415,-0.21528 0.57415,-0.45247 0,-0.17786 -0.10608,-0.32448 -0.29641,-0.38688 z m 1.60078,0 c 0.13414,-0.0655 0.19967,-0.19354 0.19967,-0.34644 0,-0.22773 -0.15912,-0.4088 -0.46489,-0.4088 h -0.69593 v 1.5603 h 0.75522 c 0.32449,0 0.48048,-0.19344 0.48048,-0.43066 0,-0.17783 -0.0936,-0.31513 -0.27455,-0.3744 z m -0.26522,-0.60228 c 0.19657,0 0.30577,0.0998 0.30577,0.26523 0,0.17471 -0.10608,0.27465 -0.30577,0.27465 h -0.53986 v -0.53988 z m 0.0593,1.25446 h -0.59915 v -0.56173 h 0.59915 c 0.20592,0 0.32449,0.10608 0.32449,0.27772 0,0.17793 -0.11544,0.28401 -0.32449,0.28401 z m 1.54155,0.18718 c 0.4524,0 0.81756,-0.35267 0.81756,-0.81439 0,-0.46187 -0.36516,-0.81453 -0.81756,-0.81453 -0.45561,0 -0.82076,0.35266 -0.82076,0.81453 0,0.46172 0.36515,0.81439 0.82076,0.81439 z m 0,-0.14976 c -0.37137,0 -0.66161,-0.29336 -0.66161,-0.66463 0,-0.37141 0.29024,-0.66466 0.66161,-0.66466 0.37129,0 0.65844,0.29325 0.65844,0.66466 0,0.37127 -0.28715,0.66463 -0.65844,0.66463 z m 2.40894,-0.0374 v -1.40741 h -1.09523 v 0.7802 c 0,0.30888 -0.0624,0.47745 -0.17166,0.62721 h -0.18096 v 0.57104 h 0.15912 v -0.41815 h 1.3481 v 0.41815 h 0.15912 v -0.57104 z m -1.07339,0 c 0.0874,-0.15921 0.13418,-0.34953 0.13418,-0.62721 v -0.62724 h 0.7801 v 1.25445 z m 2.28735,0.18718 c 0.30579,0 0.56784,-0.15598 0.69273,-0.3963 l -0.13111,-0.078 c -0.10296,0.19354 -0.30887,0.32456 -0.56162,0.32456 -0.37759,0 -0.66163,-0.29337 -0.66163,-0.66464 0,-0.37141 0.28404,-0.66466 0.66163,-0.66466 0.24962,0 0.46178,0.12792 0.55227,0.32445 l 0.12805,-0.0749 c -0.11245,-0.24335 -0.3745,-0.39944 -0.68028,-0.39944 -0.47122,0 -0.82075,0.35267 -0.82075,0.81453 0,0.46173 0.34953,0.8144 0.82075,0.8144 z m 2.09694,-1.59459 h -1.29186 v 0.15296 h 0.56794 v 1.40734 h 0.15598 v -1.40734 h 0.56794 z m 1.24197,0.75524 c 0.13415,-0.0655 0.19967,-0.19356 0.19967,-0.34644 0,-0.22773 -0.15911,-0.4088 -0.4649,-0.4088 h -0.69592 v 1.5603 h 0.75523 c 0.32448,0 0.48047,-0.19344 0.48047,-0.43068 0,-0.17782 -0.0936,-0.31513 -0.27455,-0.37438 z m -0.26523,-0.60228 c 0.19658,0 0.30579,0.0998 0.30579,0.26523 0,0.17469 -0.10608,0.27465 -0.30579,0.27465 h -0.53983 v -0.53988 z m 0.0593,1.25445 h -0.59914 v -0.56172 h 0.59914 c 0.20594,0 0.3245,0.10608 0.3245,0.27772 0,0.17792 -0.11544,0.284 -0.3245,0.284 z m 1.54156,0.18718 c 0.45241,0 0.81755,-0.35266 0.81755,-0.81439 0,-0.46187 -0.36514,-0.81453 -0.81755,-0.81453 -0.45561,0 -0.82076,0.35266 -0.82076,0.81453 0,0.46173 0.36515,0.81439 0.82076,0.81439 z m 0,-0.14976 c -0.37137,0 -0.6616,-0.29335 -0.6616,-0.66463 0,-0.3714 0.29023,-0.66467 0.6616,-0.66467 0.3713,0 0.65843,0.29327 0.65843,0.66467 0,0.37128 -0.28713,0.66463 -0.65843,0.66463 z m 3.17657,-1.44483 -0.99538,1.28885 v -1.28885 h -0.15609 v 1.5603 h 0.13737 l 0.99225,-1.28878 v 1.28878 h 0.15912 v -1.5603 z m 2.73977,0 h -1.28878 v 1.5603 h 0.15613 v -1.40734 h 0.97353 v 1.40734 h 0.15912 z m 1.30755,-0.0343 c -0.30272,0 -0.54297,0.15609 -0.67089,0.39635 v -0.36202 h -0.15609 v 2.18437 h 0.15609 V 115.385 c 0.12792,0.24033 0.36817,0.3963 0.67089,0.3963 0.44619,0 0.8082,-0.35265 0.8082,-0.81438 0,-0.46186 -0.36201,-0.81453 -0.8082,-0.81453 z m -0.009,1.47915 c -0.37137,0 -0.66153,-0.29335 -0.66153,-0.66462 0,-0.37141 0.29016,-0.66466 0.66153,-0.66466 0.37127,0 0.66153,0.29325 0.66153,0.66466 0,0.37127 -0.29026,0.66462 -0.66153,0.66462 z m 1.90973,0.14976 c 0.45241,0 0.81755,-0.35265 0.81755,-0.81438 0,-0.46186 -0.36514,-0.81453 -0.81755,-0.81453 -0.45562,0 -0.82076,0.35267 -0.82076,0.81453 0,0.46173 0.36514,0.81438 0.82076,0.81438 z m 0,-0.14976 c -0.37138,0 -0.66164,-0.29335 -0.66164,-0.66462 0,-0.37141 0.29026,-0.66466 0.66164,-0.66466 0.3713,0 0.65843,0.29325 0.65843,0.66466 0,0.37127 -0.28713,0.66462 -0.65843,0.66462 z m 2.40895,-0.0374 v -1.4074 h -1.09524 v 0.78021 c 0,0.30886 -0.0624,0.47743 -0.1717,0.62719 h -0.18095 v 0.57106 h 0.15915 V 115.747 h 1.34811 v 0.41816 h 0.15911 v -0.57106 z m -1.07339,0 c 0.0874,-0.15921 0.13418,-0.34953 0.13418,-0.62719 v -0.62725 h 0.78009 v 1.25444 z m 2.94576,-1.4074 v 0.35266 c -0.13111,-0.23402 -0.37137,-0.38698 -0.67089,-0.38698 -0.44313,0 -0.80827,0.35265 -0.80827,0.81453 0,0.46172 0.36514,0.81438 0.80827,0.81438 0.29952,0 0.53978,-0.15285 0.67089,-0.38696 v 0.35267 h 0.15915 v -1.5603 z m -0.65841,1.44483 c -0.37137,0 -0.66163,-0.29336 -0.66163,-0.66462 0,-0.37141 0.29026,-0.66467 0.66163,-0.66467 0.37127,0 0.65841,0.29326 0.65841,0.66467 0,0.37126 -0.28714,0.66462 -0.65841,0.66462 z m 3.05487,0.11544 -0.73642,-0.81133 0.70522,-0.74897 h -0.19344 l -0.65841,0.70533 v -0.70533 h -0.1591 v 0.70533 l -0.65855,-0.70533 h -0.19345 l 0.70836,0.74897 -0.73955,0.81133 h 0.19344 l 0.68975,-0.76765 v 0.76765 h 0.1591 v -0.76765 l 0.68961,0.76765 z m 1.5603,-1.5603 v 0.35267 c -0.13115,-0.23403 -0.37137,-0.38699 -0.67089,-0.38699 -0.44316,0 -0.80827,0.35265 -0.80827,0.81453 0,0.46172 0.36511,0.81439 0.80827,0.81439 0.29952,0 0.53974,-0.15286 0.67089,-0.38696 v 0.35266 h 0.15911 v -1.5603 z m -0.65841,1.44484 c -0.37141,0 -0.66163,-0.29336 -0.66163,-0.66463 0,-0.37141 0.29022,-0.66468 0.66163,-0.66468 0.37127,0 0.65841,0.29327 0.65841,0.66468 0,0.37127 -0.28714,0.66463 -0.65841,0.66463 z m -35.43004,3.7477 c 0.30574,0 0.56784,-0.15599 0.69273,-0.39632 l -0.13115,-0.078 c -0.10296,0.19355 -0.30888,0.32456 -0.56158,0.32456 -0.37764,0 -0.66164,-0.29336 -0.66164,-0.66462 0,-0.37141 0.284,-0.66467 0.66164,-0.66467 0.24961,0 0.46176,0.12792 0.55222,0.32449 l 0.12805,-0.0749 c -0.11245,-0.24338 -0.3745,-0.39947 -0.68025,-0.39947 -0.47122,0 -0.82075,0.35266 -0.82075,0.81453 0,0.46176 0.34953,0.81438 0.82075,0.81438 z m 2.54319,-1.59459 h -0.18722 l -0.56794,0.89563 -0.5679,-0.89563 h -0.1842 v 1.5603 h 0.15609 v -1.32933 l 0.58665,0.92672 h 0.0218 l 0.58357,-0.92047 v 1.32308 h 0.15911 z m 1.19515,1.59459 c 0.45242,0 0.81752,-0.35262 0.81752,-0.8144 0,-0.46186 -0.3651,-0.81453 -0.81752,-0.81453 -0.45561,0 -0.82075,0.35267 -0.82075,0.81453 0,0.46178 0.36514,0.8144 0.82075,0.8144 z m 0,-0.14976 c -0.37137,0 -0.66163,-0.29337 -0.66163,-0.66464 0,-0.37139 0.29026,-0.66466 0.66163,-0.66466 0.37127,0 0.65841,0.29327 0.65841,0.66466 0,0.37127 -0.28714,0.66464 -0.65841,0.66464 z m 2.22173,-1.44483 h -1.29186 v 0.15296 h 0.56794 v 1.40734 h 0.15597 v -1.40734 h 0.56795 z m 1.10779,-0.0343 c -0.30271,0 -0.54297,0.15609 -0.67089,0.39634 v -0.362 h -0.15609 v 2.18438 h 0.15609 v -0.98609 c 0.12792,0.24032 0.36818,0.39631 0.67089,0.39631 0.44618,0 0.8082,-0.35263 0.8082,-0.81439 0,-0.46188 -0.36202,-0.81453 -0.8082,-0.81453 z m -0.009,1.47915 c -0.37137,0 -0.66154,-0.29336 -0.66154,-0.66462 0,-0.37141 0.29017,-0.66467 0.66154,-0.66467 0.37127,0 0.66153,0.29326 0.66153,0.66467 0,0.37126 -0.29026,0.66462 -0.66153,0.66462 z m 1.90973,0.14976 c 0.4524,0 0.81756,-0.35262 0.81756,-0.81438 0,-0.46187 -0.36516,-0.81453 -0.81756,-0.81453 -0.45561,0 -0.82076,0.35266 -0.82076,0.81453 0,0.46176 0.36515,0.81438 0.82076,0.81438 z m 0,-0.14976 c -0.37137,0 -0.66165,-0.29336 -0.66165,-0.66462 0,-0.37141 0.29028,-0.66467 0.66165,-0.66467 0.37129,0 0.65844,0.29326 0.65844,0.66467 0,0.37126 -0.28715,0.66462 -0.65844,0.66462 z m 2.15311,-0.6896 c 0.13414,-0.0655 0.19967,-0.19354 0.19967,-0.34643 0,-0.22774 -0.15912,-0.4088 -0.46487,-0.4088 h -0.69597 v 1.5603 h 0.75524 c 0.32449,0 0.48048,-0.19344 0.48048,-0.43067 0,-0.17782 -0.0936,-0.31513 -0.27455,-0.3744 z m -0.2652,-0.60227 c 0.19654,0 0.30575,0.0998 0.30575,0.26522 0,0.17471 -0.10608,0.27465 -0.30575,0.27465 h -0.53988 v -0.53987 z m 0.0593,1.25446 h -0.59913 v -0.56169 h 0.59913 c 0.20593,0 0.32449,0.10608 0.32449,0.27768 0,0.17793 -0.11544,0.28401 -0.32449,0.28401 z m 1.44477,-0.80205 h -0.46177 v -0.60535 h -0.15608 v 1.5603 h 0.61785 c 0.27778,0 0.5149,-0.19034 0.5149,-0.47747 0,-0.28704 -0.23712,-0.47746 -0.5149,-0.47746 z m 0.75522,-0.60537 v 1.5603 h 0.15599 v -1.56028 z m -0.75522,1.40742 h -0.46177 v -0.64905 h 0.46177 c 0.19664,0 0.35576,0.1248 0.35576,0.32445 0,0.19668 -0.15912,0.3246 -0.35576,0.3246 z m 2.65862,0.15288 -0.62097,-0.80507 0.58351,-0.75523 h -0.18717 l -0.49308,0.63354 -0.48993,-0.63354 h -0.19031 l 0.58666,0.75837 -0.62411,0.80193 h 0.19031 l 0.52738,-0.68028 0.5274,0.68028 z m 1.82863,0.0374 c 0.43998,0 0.75835,-0.30887 0.75835,-0.72705 0,-0.42755 -0.3121,-0.73016 -0.72397,-0.73016 -0.21534,0 -0.48057,0.0967 -0.63655,0.34006 0.0499,-0.27457 0.17782,-0.41494 0.4836,-0.55231 0.31834,-0.14667 0.64591,-0.22155 0.69895,-0.52107 l -0.1248,-0.0719 c -0.0437,0.26529 -0.31822,0.30585 -0.65839,0.46809 -0.4962,0.24345 -0.58356,0.50555 -0.58356,0.99236 0,0.4837 0.3433,0.80194 0.78636,0.80194 z m 0,-0.15599 c -0.35569,0 -0.61787,-0.25284 -0.61787,-0.61162 0.0251,-0.33082 0.33079,-0.53675 0.63355,-0.53675 0.34633,0 0.58345,0.24339 0.58345,0.57731 0,0.3307 -0.24648,0.57106 -0.59913,0.57106 z m 2.25303,-1.44173 -0.99539,1.28885 v -1.28885 h -0.15613 v 1.5603 h 0.13741 l 0.99226,-1.28878 v 1.28878 h 0.15912 v -1.5603 z m 1.74747,0 v 0.70532 h -0.97354 v -0.70532 h -0.15608 v 1.5603 h 0.15608 v -0.70522 h 0.97354 v 0.70522 h 0.15912 v -1.5603 z m 1.35437,1.5946 c 0.45241,0 0.81755,-0.35264 0.81755,-0.8144 0,-0.46187 -0.36514,-0.81453 -0.81755,-0.81453 -0.4556,0 -0.82074,0.35266 -0.82074,0.81453 0,0.46176 0.36514,0.8144 0.82074,0.8144 z m 0,-0.14976 c -0.37137,0 -0.66164,-0.29337 -0.66164,-0.66464 0,-0.37141 0.29027,-0.66467 0.66164,-0.66467 0.37128,0 0.65841,0.29326 0.65841,0.66467 0,0.37127 -0.28713,0.66464 -0.65841,0.66464 z m 2.38711,0.11544 -0.8706,-0.81131 0.8394,-0.74899 h -0.21841 l -0.78945,0.70841 v -0.70841 h -0.1561 v 1.5603 h 0.1561 v -0.76765 l 0.8269,0.76765 z m 1.5789,-1.5603 h -1.09832 v 0.90498 c 0,0.40257 -0.12805,0.53049 -0.36827,0.50865 v 0.14667 c 0.29339,0.0218 0.52425,-0.1092 0.52425,-0.65532 v -0.75202 h 0.78635 v 1.40734 h 0.15599 z m 1.18278,-0.0343 c -0.47745,0 -0.80827,0.35578 -0.80827,0.81453 0,0.47122 0.34017,0.81438 0.82075,0.81438 0.30888,0 0.55223,-0.14037 0.68025,-0.35262 l -0.13738,-0.0811 c -0.0905,0.16547 -0.28391,0.28401 -0.53974,0.28401 -0.35579,0 -0.62411,-0.23097 -0.66164,-0.58353 h 1.41364 c 0,-0.025 0.003,-0.0499 0.003,-0.0749 0,-0.42755 -0.2965,-0.82076 -0.77074,-0.82076 z m 0,0.14986 c 0.30573,0 0.57405,0.21215 0.60839,0.59288 h -1.25442 c 0.0313,-0.3464 0.29023,-0.59288 0.64603,-0.59288 z m 1.38237,-0.387 h 0.78945 v -0.13726 h -0.78945 z m 0.90488,0.27146 -0.99539,1.28884 v -1.28884 h -0.15608 v 1.5603 h 0.13738 l 0.99225,-1.28878 v 1.28878 h 0.15912 v -1.5603 z"
       inkscape:connector-curvature="0" />
  </g>
</svg>
