<svg xmlns="http://www.w3.org/2000/svg" viewBox="0 0 15.32 18.68"><defs><style>.cls-1{fill:#fefefe;fill-rule:evenodd;}</style></defs><title>Asset 17</title><g id="Layer_2" data-name="Layer 2"><g id="Слой_3" data-name="Слой 3"><path class="cls-1" d="M1.82,8.25a.37.37,0,0,0,.37-.37.37.37,0,0,0-.73,0A.37.37,0,0,0,1.82,8.25Z"/><path class="cls-1" d="M.73,8.29V3.86A10.15,10.15,0,0,0,5.85,2.28,11,11,0,0,0,7.66.87a9.88,9.88,0,0,0,6.93,3V8.29a9.76,9.76,0,0,1-1.95,5.89,10.22,10.22,0,0,1-5,3.75,10.27,10.27,0,0,1-5-3.75A9.76,9.76,0,0,1,.73,8.29ZM7.56,18.67h.21a11,11,0,0,0,5.46-4.05,10.52,10.52,0,0,0,2.09-6.33V3.5A.36.36,0,0,0,15,3.14,9.28,9.28,0,0,1,8.14.32,1.55,1.55,0,0,0,7.85.05a.38.38,0,0,0-.19,0,.45.45,0,0,0-.19.05l-.2.18A9.92,9.92,0,0,1,5.46,1.66,9.46,9.46,0,0,1,.36,3.14.36.36,0,0,0,0,3.5V8.29a10.47,10.47,0,0,0,2.1,6.33A10.88,10.88,0,0,0,7.56,18.67Z"/><path class="cls-1" d="M7.54,17l.12,0,.12,0a9.23,9.23,0,0,0,4.28-3.27,9.1,9.1,0,0,0,1.8-5.46V4.88a.37.37,0,0,0-.32-.36A10.94,10.94,0,0,1,7.88,2.1a.37.37,0,0,0-.45,0A11.81,11.81,0,0,1,1.78,4.51a.37.37,0,0,0-.32.37V6.42a.37.37,0,1,0,.73,0V5.19A12.39,12.39,0,0,0,7.65,2.85,11.66,11.66,0,0,0,13.14,5.2V8.29a8.34,8.34,0,0,1-1.67,5,8.53,8.53,0,0,1-3.81,3,8.58,8.58,0,0,1-3.81-3,8.36,8.36,0,0,1-1.6-4A.37.37,0,0,0,1.84,9a.36.36,0,0,0-.32.4,9.09,9.09,0,0,0,1.75,4.37A9.2,9.2,0,0,0,7.54,17Z"/><path class="cls-1" d="M9,9.45a.38.38,0,0,0-.11.33l.27,1.53-1.38-.72a.34.34,0,0,0-.34,0l-1.38.72.26-1.53a.4.4,0,0,0-.1-.33L5.14,8.37l1.54-.23A.37.37,0,0,0,7,7.94l.69-1.39.69,1.39a.35.35,0,0,0,.27.2l1.54.23L9,9.45ZM11.28,8A.36.36,0,0,0,11,7.75l-2.08-.3L8,5.56a.34.34,0,0,0-.32-.2h0a.35.35,0,0,0-.33.2L6.39,7.45l-2.08.3A.37.37,0,0,0,4,8a.36.36,0,0,0,.09.37L5.61,9.84l-.35,2.08a.35.35,0,0,0,.14.35.33.33,0,0,0,.21.07.33.33,0,0,0,.17,0l1.87-1,1.86,1a.37.37,0,0,0,.53-.38L9.68,9.84l1.51-1.47A.34.34,0,0,0,11.28,8Z"/></g></g></svg>