<svg xmlns="http://www.w3.org/2000/svg" viewBox="0 0 12.57 16.58"><defs><style>.cls-1{fill:#fefefe;fill-rule:evenodd;}</style></defs><title>Asset 13</title><g id="Layer_2" data-name="Layer 2"><g id="Слой_3" data-name="Слой 3"><path class="cls-1" d="M8.17,2.53a.25.25,0,0,0,.35-.11.26.26,0,0,0-.12-.35,4.7,4.7,0,0,0-5.46.87,4.74,4.74,0,0,0-.4,6.24.3.3,0,0,0,.21.1.25.25,0,0,0,.16-.06.25.25,0,0,0,0-.36A4.2,4.2,0,0,1,8.17,2.53Z"/><path class="cls-1" d="M10.14,4a.26.26,0,0,0-.12.35A4.2,4.2,0,0,1,3.7,9.6a.27.27,0,0,0-.37,0,.26.26,0,0,0,0,.37,4.72,4.72,0,0,0,6.23-.39,4.71,4.71,0,0,0,.88-5.47A.25.25,0,0,0,10.14,4Z"/><path class="cls-1" d="M9.05,3.13l.19.18a1.57,1.57,0,0,1,.18.19.28.28,0,0,0,.2.09.27.27,0,0,0,.17-.06.27.27,0,0,0,0-.37l-.21-.22-.21-.2a.28.28,0,0,0-.37,0A.26.26,0,0,0,9.05,3.13Z"/><path class="cls-1" d="M12,6.48,11.65,7a.91.91,0,0,0-.12.6l.11.66a.37.37,0,0,1-.15.35L11,9a.88.88,0,0,0-.35.51l-.15.64a.37.37,0,0,1-.27.27l-.64.15A.88.88,0,0,0,9,11l-.39.53a.38.38,0,0,1-.36.15l-.65-.11a.91.91,0,0,0-.6.12L6.48,12a.37.37,0,0,1-.38,0l-.57-.35a.94.94,0,0,0-.46-.13H4.93l-.65.11a.39.39,0,0,1-.36-.15L3.54,11A1,1,0,0,0,3,10.61l-.65-.15a.39.39,0,0,1-.27-.27L2,9.55A.86.86,0,0,0,1.62,9l-.54-.39a.37.37,0,0,1-.14-.36L1,7.64A.91.91,0,0,0,.92,7L.58,6.48a.33.33,0,0,1,0-.38l.34-.57A.9.9,0,0,0,1,4.93l-.1-.65a.38.38,0,0,1,.14-.36l.54-.38A.93.93,0,0,0,2,3l.15-.65a.41.41,0,0,1,.27-.27L3,2a.93.93,0,0,0,.51-.34l.38-.54A.38.38,0,0,1,4.28.94l.65.1a.9.9,0,0,0,.6-.12L6.1.58a.33.33,0,0,1,.38,0L7,.92a.91.91,0,0,0,.6.12L8.3.94a.37.37,0,0,1,.35.14L9,1.62A.86.86,0,0,0,9.55,2l.64.15a.39.39,0,0,1,.27.27l.15.65a1,1,0,0,0,.35.51l.53.38a.39.39,0,0,1,.15.36l-.11.65a.9.9,0,0,0,.12.6L12,6.1a.37.37,0,0,1,0,.38Zm.57-.18v0a.84.84,0,0,0-.13-.46l-.34-.56a.36.36,0,0,1,0-.25l.1-.65a.9.9,0,0,0-.35-.86l-.54-.39a.34.34,0,0,1-.14-.21L11,2.26a.88.88,0,0,0-.66-.65l-.64-.16a.38.38,0,0,1-.21-.14L9.07.78A.9.9,0,0,0,8.21.42l-.65.1A.33.33,0,0,1,7.31.47L6.75.13A.84.84,0,0,0,6.29,0a.9.9,0,0,0-.47.13L5.26.47A.31.31,0,0,1,5,.52L4.36.42A.9.9,0,0,0,3.5.78l-.39.53a.34.34,0,0,1-.21.14l-.64.16a.86.86,0,0,0-.65.65l-.16.64a.34.34,0,0,1-.14.21L.78,3.5a.9.9,0,0,0-.36.86L.52,5a.31.31,0,0,1-.05.25l-.34.56A.9.9,0,0,0,0,6.29H0a.84.84,0,0,0,.13.46l.34.56a.33.33,0,0,1,.05.25l-.1.65a.9.9,0,0,0,.36.86l.53.39a.38.38,0,0,1,.14.21l.16.64a.88.88,0,0,0,.65.66l.27.06-1.81,4a.26.26,0,0,0,0,.27.26.26,0,0,0,.24.1l1.45-.17.84,1.2a.27.27,0,0,0,.22.11h0a.27.27,0,0,0,.22-.15L5.59,12.3l.23.14a.9.9,0,0,0,.47.13.84.84,0,0,0,.46-.13L7,12.29l1.86,4.14a.26.26,0,0,0,.21.15h0a.27.27,0,0,0,.22-.11l.84-1.2,1.46.17a.28.28,0,0,0,.24-.1.29.29,0,0,0,0-.27l-1.82-4,.26-.06a.89.89,0,0,0,.66-.66l.15-.64a.38.38,0,0,1,.14-.21l.54-.39a.89.89,0,0,0,.35-.86l-.1-.65a.38.38,0,0,1,0-.25l.34-.56h0a.84.84,0,0,0,.13-.45Zm-2.52,8.43,1.15.14L9.55,11.18a.24.24,0,0,0-.09.08l-.39.54L9,11.93l.87,1.94a.27.27,0,0,1-.13.35l-.11,0a.28.28,0,0,1-.24-.15l-.87-1.94a.61.61,0,0,1-.27,0l-.65-.1a.17.17,0,0,0-.1,0l1.67,3.74.67-.95a.27.27,0,0,1,.25-.11Zm-6.6,1.06,1.68-3.74a.24.24,0,0,0-.12,0l-.65.1a.57.57,0,0,1-.26,0l-.87,1.94a.27.27,0,0,1-.24.15l-.1,0a.27.27,0,0,1-.13-.35l.86-1.94L3.5,11.8l-.39-.54L3,11.18,1.38,14.87l1.16-.14a.25.25,0,0,1,.24.11Z"/><path class="cls-1" d="M5.4,5.47a.27.27,0,0,0,.21-.15l.68-1.48L7,5.32a.24.24,0,0,0,.2.15l1.61.19L7.59,6.76A.24.24,0,0,0,7.51,7l.32,1.59L6.41,7.8a.22.22,0,0,0-.25,0l-1.42.79L5.06,7A.24.24,0,0,0,5,6.76L3.79,5.66,5.4,5.47Zm-2,.5L4.52,7,4.21,8.59a.47.47,0,0,0,.19.48.46.46,0,0,0,.5,0l1.39-.77,1.38.77a.47.47,0,0,0,.51,0,.46.46,0,0,0,.18-.48L8.05,7,9.22,6a.49.49,0,0,0,.12-.5A.45.45,0,0,0,9,5.15L7.38,5,6.72,3.53a.48.48,0,0,0-.43-.28.47.47,0,0,0-.43.28L5.19,5l-1.57.19a.48.48,0,0,0-.39.32A.47.47,0,0,0,3.36,6Z"/></g></g></svg>