<svg xmlns="http://www.w3.org/2000/svg" viewBox="0 0 16.06 16.06"><defs><style>.cls-1{fill:#fefefe;fill-rule:evenodd;}</style></defs><title>Asset 11</title><g id="Layer_2" data-name="Layer 2"><g id="Слой_3" data-name="Слой 3"><path class="cls-1" d="M4.62,10.94a.31.31,0,1,0,.22.09A.31.31,0,0,0,4.62,10.94Z"/><path class="cls-1" d="M11.75,10.08a1.52,1.52,0,0,0-2.13,0l-.49.5a.6.6,0,0,1-.86,0L5.48,7.79a.6.6,0,0,1,0-.86l.5-.5A1.51,1.51,0,0,0,6,4.31L3.8,2.13a1.5,1.5,0,0,0-1.06-.44,1.54,1.54,0,0,0-1.07.44l-.52.52a4,4,0,0,0,0,5.58L3.53,10.6a.31.31,0,0,0,.44,0,.33.33,0,0,0,0-.45L1.6,7.78a3.31,3.31,0,0,1,0-4.68l.52-.52a.84.84,0,0,1,.62-.26.87.87,0,0,1,.62.26L5.53,4.75A.88.88,0,0,1,5.53,6l-.28.28-2-2a.3.3,0,0,0-.44,0,.31.31,0,0,0,0,.44l2,2a1.17,1.17,0,0,0-.17.61A1.19,1.19,0,0,0,5,8.23L7.83,11a1.19,1.19,0,0,0,.87.36,1.16,1.16,0,0,0,.61-.16l2.3,2.3a.32.32,0,0,0,.23.1.28.28,0,0,0,.22-.1.31.31,0,0,0,0-.44L9.79,10.81l.28-.28a.88.88,0,0,1,1.24,0l2.17,2.17a.87.87,0,0,1,.26.62.84.84,0,0,1-.26.62l-.52.52a3.31,3.31,0,0,1-4.68,0L5.65,11.83a.31.31,0,0,0-.44,0,.31.31,0,0,0,0,.45l2.62,2.63a4,4,0,0,0,2.79,1.15,3.91,3.91,0,0,0,2.78-1.15l.53-.53a1.5,1.5,0,0,0,0-2.12Z"/><path class="cls-1" d="M2,3.51A.29.29,0,0,0,2,3.73a.31.31,0,1,0,.62,0,.29.29,0,0,0-.09-.22.32.32,0,0,0-.22-.1A.32.32,0,0,0,2,3.51Z"/><path class="cls-1" d="M12.36,6.76H11a.28.28,0,0,0-.18.06l-.83.6V7a.31.31,0,0,0-.23-.3,3.07,3.07,0,0,1,.74-6h1.9a3.07,3.07,0,1,1,0,6.13Zm3.7-3.06h0A3.7,3.7,0,0,0,12.36,0h-1.9A3.69,3.69,0,0,0,9.33,7.21V8a.3.3,0,0,0,.17.28.32.32,0,0,0,.14,0,.3.3,0,0,0,.18-.06l1.24-.89h1.3A3.7,3.7,0,0,0,16.06,3.7Z"/><path class="cls-1" d="M9.68,3.38a.32.32,0,0,0-.23.09.36.36,0,0,0-.09.22A.31.31,0,0,0,9.68,4a.36.36,0,0,0,.22-.09A.32.32,0,0,0,10,3.69a.31.31,0,0,0-.31-.31Z"/><path class="cls-1" d="M11.41,3.38a.32.32,0,0,0-.23.09.36.36,0,0,0-.09.22.31.31,0,0,0,.32.32.36.36,0,0,0,.22-.09.32.32,0,0,0,.09-.23.31.31,0,0,0-.31-.31Z"/><path class="cls-1" d="M13.14,3.38a.28.28,0,0,0-.22.09.32.32,0,0,0-.1.22.33.33,0,0,0,.1.23.32.32,0,0,0,.22.09.36.36,0,0,0,.22-.09.32.32,0,0,0,.09-.23.31.31,0,0,0-.31-.31Z"/></g></g></svg>