<svg xmlns="http://www.w3.org/2000/svg" viewBox="0 0 15 18.9"><defs></defs><g id="Layer_2" data-name="Layer 2"><g id="Слой_3" data-name="Слой 3"><path class="cls-1" d="M5.5,2.8A.2.2,0,0,0,5.68,3L7,3.15l.58,1.17a.22.22,0,0,0,.2.12A.22.22,0,0,0,8,4.32l.57-1.17L9.83,3A.22.22,0,0,0,10,2.8.22.22,0,0,0,10,2.57L9,1.66,9.24.37A.24.24,0,0,0,9.15.15.22.22,0,0,0,9,.11l-.11,0L7.75.74,6.6.13l-.11,0a.2.2,0,0,0-.13,0,.22.22,0,0,0-.09.22l.22,1.29-.94.91a.22.22,0,0,0,0,.23Zm1.39-.9A.21.21,0,0,0,7,1.7L6.79.75l.86.45a.26.26,0,0,0,.21,0L8.71.75l-.16,1a.22.22,0,0,0,.07.2l.69.68-1,.14a.21.21,0,0,0-.17.12l-.43.87-.43-.87a.2.2,0,0,0-.17-.12l-1-.14Z"/><path class="cls-1" d="M2.38,6.51a.23.23,0,0,0,.2-.13l.58-1.17L4.45,5a.2.2,0,0,0,.18-.15.22.22,0,0,0,0-.23l-.94-.91.22-1.29a.23.23,0,0,0-.09-.22.23.23,0,0,0-.24,0l-1.15.61L1.22,2.2a.23.23,0,0,0-.24,0,.23.23,0,0,0-.09.22l.22,1.29-.93.91a.2.2,0,0,0-.06.23A.23.23,0,0,0,.3,5l1.29.19.58,1.17a.23.23,0,0,0,.21.13Zm-.6-1.73-1-.14L1.51,4a.23.23,0,0,0,.07-.2l-.17-1,.86.45a.2.2,0,0,0,.21,0l.86-.45-.17,1a.26.26,0,0,0,.07.2l.69.67L3,4.78a.24.24,0,0,0-.17.13l-.42.86L2,4.91a.24.24,0,0,0-.17-.13Z"/><path class="cls-1" d="M14.39,3.73l.22-1.29a.21.21,0,0,0-.09-.22.21.21,0,0,0-.23,0l-1.16.61L12,2.2a.23.23,0,0,0-.24,0,.22.22,0,0,0-.08.22l.22,1.29-.94.91a.24.24,0,0,0-.06.23.23.23,0,0,0,.19.15l1.29.19.58,1.17a.22.22,0,0,0,.4,0l.58-1.17L15.2,5a.23.23,0,0,0,.19-.15.24.24,0,0,0-.06-.23l-.94-.91Zm-.66,1.05a.21.21,0,0,0-.17.13l-.43.86-.43-.86a.23.23,0,0,0-.17-.13l-1-.14.7-.67a.25.25,0,0,0,.06-.2l-.16-1,.85.45a.2.2,0,0,0,.21,0l.86-.45-.16,1A.25.25,0,0,0,14,4l.7.67Z"/><path class="cls-1" d="M7.73,12h0a2,2,0,0,0,1.46-.62,2.17,2.17,0,0,0,0-3,2.05,2.05,0,0,0-3,0,2.18,2.18,0,0,0,0,3A2.09,2.09,0,0,0,7.73,12ZM6.61,8.6a1.6,1.6,0,0,1,1.15-.48h0a1.58,1.58,0,0,1,1.15.5A1.73,1.73,0,0,1,8.9,11a1.62,1.62,0,0,1-1.14.48h0A1.64,1.64,0,0,1,6.58,11a1.73,1.73,0,0,1,0-2.4Z"/><path class="cls-1" d="M3.17,9.8a4.59,4.59,0,0,0,.26,1.87,5,5,0,0,0,1,1.67l3.07,3.33a.2.2,0,0,0,.16.07h0a.27.27,0,0,0,.17-.06L11,13.41A4.84,4.84,0,0,0,12,11.76a4.55,4.55,0,0,0,.3-1.86A4.8,4.8,0,0,0,11,6.82a4.52,4.52,0,0,0-6.4-.08A4.86,4.86,0,0,0,3.17,9.8ZM7.75,5.9h0a4,4,0,0,1,2.86,1.23,4.33,4.33,0,0,1,1.23,2.79,4,4,0,0,1-.27,1.68,4.33,4.33,0,0,1-1,1.5l-3,3.09L4.79,13a4.52,4.52,0,0,1-.94-1.51,4.22,4.22,0,0,1-.23-1.69A4.33,4.33,0,0,1,4.91,7.07,4,4,0,0,1,7.75,5.9Z"/><path class="cls-1" d="M12.88,16a8.32,8.32,0,0,0-2.18-.59.22.22,0,0,0-.25.18.22.22,0,0,0,.18.26c1.88.3,2.73.82,2.73,1.17h0a.38.38,0,0,1-.13.26,4,4,0,0,1-2,.78,17,17,0,0,1-3.52.34c-3.48,0-5.62-.81-5.62-1.39,0-.35.84-.86,2.66-1.17A.22.22,0,0,0,5,15.67a.22.22,0,0,0,0-.22.2.2,0,0,0-.21-.08,7.88,7.88,0,0,0-2.12.6c-.61.29-.92.63-.92,1,0,.55.65,1,1.88,1.36a16.49,16.49,0,0,0,4.19.48c2.73,0,5.05-.51,5.79-1.25a.79.79,0,0,0,.26-.59Q13.81,16.4,12.88,16Z"/></g></g></svg>