<svg xmlns="http://www.w3.org/2000/svg" viewBox="0 0 14.19 18.82"><defs><style>.cls-1{fill:#fefefe;fill-rule:evenodd;}</style></defs><title>Asset 18</title><g id="Layer_2" data-name="Layer 2"><g id="Слой_3" data-name="Слой 3"><path class="cls-1" d="M7.91,3.4v-3a.38.38,0,0,0-.76,0v3a.38.38,0,0,0,.38.38A.4.4,0,0,0,7.91,3.4Z"/><path class="cls-1" d="M4.67,4.64a.35.35,0,0,0,.26-.12.37.37,0,0,0,0-.53L2.8,1.85a.38.38,0,0,0-.54,0,.37.37,0,0,0,0,.53L4.4,4.52A.36.36,0,0,0,4.67,4.64Z"/><path class="cls-1" d="M13.81,6.8h-3a.38.38,0,0,0,0,.76h3a.38.38,0,1,0,0-.76Z"/><path class="cls-1" d="M.86,7.18a.38.38,0,0,0,.38.38h3a.38.38,0,0,0,0-.76h-3A.38.38,0,0,0,.86,7.18Z"/><path class="cls-1" d="M10.33,4.74,12.47,2.6a.37.37,0,0,0-.53-.53L9.8,4.21a.37.37,0,0,0,0,.53.35.35,0,0,0,.27.11A.34.34,0,0,0,10.33,4.74Z"/><path class="cls-1" d="M0,11.27v6.59a.76.76,0,0,0,.75.75H3a.75.75,0,0,0,.62-.33A1.94,1.94,0,0,0,5,18.82h6a2.13,2.13,0,0,0,2.36-1.93l.8-5.13a.13.13,0,0,0,0-.06,2,2,0,0,0-2-2h-3V7.56a2.33,2.33,0,0,0-.81-2A2.59,2.59,0,0,0,6.25,5.3.38.38,0,0,0,6,5.66V8.11C6,10,3.77,10.68,3.68,10.7a.27.27,0,0,0-.13.07A.73.73,0,0,0,3,10.52H.75a.75.75,0,0,0-.75.75Zm3.74.18h.14c.12,0,2.87-.83,2.87-3.32V6a1.59,1.59,0,0,1,1.13.2,1.66,1.66,0,0,1,.5,1.39v2.53a.38.38,0,0,0,.38.38h3.38a1.24,1.24,0,0,1,1.23,1.2l-.8,5.1v0A1.4,1.4,0,0,1,11,18.06H5a1.23,1.23,0,0,1-1.23-1.23V11.45Zm-3-.17H3v6.57H.76Z"/></g></g></svg>