<svg xmlns="http://www.w3.org/2000/svg" viewBox="0 0 16.02 18.04"><defs><style>.cls-1,.cls-2{fill:#fefefe;fill-rule:evenodd;}.cls-2{stroke:#fefefe;stroke-miterlimit:22.93;stroke-width:0.22px;}</style></defs><title>Asset 16</title><g id="Layer_2" data-name="Layer 2"><g id="Слой_3" data-name="Слой 3"><path class="cls-1" d="M3.74,9.89a.2.2,0,0,1,0,0h-.3s0,0,0,0v-1a.88.88,0,0,1,0-.17A.34.34,0,0,1,3.5,8.6a.39.39,0,0,1,.14-.1.68.68,0,0,1,.23,0h.61a.06.06,0,0,1,0,0,.43.43,0,0,1,0,0v.15s0,0,0,0l0,0H3.92a.18.18,0,0,0-.14,0,.17.17,0,0,0,0,.13v1ZM6,9.2a.91.91,0,0,1-.17.58.67.67,0,0,1-.52.2.6.6,0,0,1-.51-.2.81.81,0,0,1-.17-.57.82.82,0,0,1,0-.33.68.68,0,0,1,.14-.25A.71.71,0,0,1,5,8.48a.76.76,0,0,1,.27-.05.64.64,0,0,1,.52.21A.85.85,0,0,1,6,9.2Zm-.34,0a1.34,1.34,0,0,0,0-.2.44.44,0,0,0-.06-.16.35.35,0,0,0-.1-.11.43.43,0,0,0-.17,0,.42.42,0,0,0-.16,0A.38.38,0,0,0,5,8.85.52.52,0,0,0,5,9a1.23,1.23,0,0,0,0,.2A.75.75,0,0,0,5,9.57a.28.28,0,0,0,.27.14.43.43,0,0,0,.17,0l.11-.11a.75.75,0,0,0,0-.16.62.62,0,0,0,0-.19Zm1.3-.47V9.89a.06.06,0,0,1,0,0h-.3s0,0,0,0V8.74H6.19l0,0s0,0,0,0V8.53a.07.07,0,0,1,0,0l0,0H7.37l0,0a.07.07,0,0,1,0,0v.15s0,0,0,0l0,0Zm1.92.46a.85.85,0,0,1-.17.58.67.67,0,0,1-.52.2.6.6,0,0,1-.51-.2.86.86,0,0,1-.17-.57,1,1,0,0,1,0-.33.6.6,0,0,1,.36-.4.82.82,0,0,1,.28-.05.64.64,0,0,1,.51.21.8.8,0,0,1,.17.56Zm-.33,0a1.36,1.36,0,0,0,0-.2.75.75,0,0,0,0-.16.3.3,0,0,0-.28-.15.33.33,0,0,0-.15,0,.32.32,0,0,0-.12.11A.34.34,0,0,0,7.85,9a.65.65,0,0,0,0,.2.76.76,0,0,0,.07.37.28.28,0,0,0,.27.14.3.3,0,0,0,.28-.15.44.44,0,0,0,.06-.16,1.23,1.23,0,0,0,0-.19Zm1.72-.06a.37.37,0,0,1,.18.14.47.47,0,0,1,0,.4.45.45,0,0,1-.1.14.46.46,0,0,1-.17.09.6.6,0,0,1-.2,0H9.32a.12.12,0,0,1-.11,0,.12.12,0,0,1,0-.09V8.6a.15.15,0,0,1,0-.1.15.15,0,0,1,.1,0H10l.18,0a.52.52,0,0,1,.15.07.29.29,0,0,1,.1.12.29.29,0,0,1,0,.17.26.26,0,0,1-.05.17.34.34,0,0,1-.12.12v0Zm-.11.33a.25.25,0,0,0-.05-.15.29.29,0,0,0-.17-.05H9.5v.41h.41l.12,0,.07-.05a.11.11,0,0,0,0-.07.2.2,0,0,0,0-.07ZM9.5,9H10l0,0,0,0a.19.19,0,0,0,0-.08.12.12,0,0,0,0-.1.14.14,0,0,0-.11,0H9.5V9Zm2.41.86s0,0,0,0h-.3s0,0,0,0V8.51a.05.05,0,0,1,0,0h.3s0,0,0,0V9h.18a.28.28,0,0,0,.15,0,.3.3,0,0,0,.11-.16l.1-.33s0,0,0,0h.26s0,0,0,0a0,0,0,0,1,0,0l-.1.37a.77.77,0,0,1-.07.16.23.23,0,0,1-.12.1h0a.23.23,0,0,1,.1,0l.07.06,0,.07,0,.09.14.49a0,0,0,0,1,0,0s0,0,0,0h-.27l0,0-.14-.46a.23.23,0,0,0-.1-.13.3.3,0,0,0-.16-.05h-.21V9.9ZM5.33,12.59a.61.61,0,0,1-.06.28.47.47,0,0,1-.15.21.72.72,0,0,1-.24.14,1,1,0,0,1-.31,0,1.47,1.47,0,0,1-.36,0,.66.66,0,0,1-.31-.16s0,0,0-.06L4,12.83s0,0,.08,0a.94.94,0,0,0,.23.1l.24,0a.54.54,0,0,0,.33-.09A.37.37,0,0,0,5,12.6a.32.32,0,0,0,0-.14.23.23,0,0,0-.08-.09.24.24,0,0,0-.11-.06l-.14,0H4.51l-.11,0-.09,0-.1,0a.17.17,0,0,1-.14,0l-.06,0a.1.1,0,0,1-.07-.05s0-.05,0-.1L4,11.52a.21.21,0,0,1,.07-.15.17.17,0,0,1,.12,0h1a.43.43,0,0,1,0,.05v.17a.2.2,0,0,1,0,0H4.3l0,.47L4.46,12h.21a.75.75,0,0,1,.26,0,.72.72,0,0,1,.21.12.62.62,0,0,1,.14.18.6.6,0,0,1,0,.24Zm1.8.18s0,0,0,0H6.89v.36s0,0,0,0h-.3a.05.05,0,0,1,0,0v-.36H5.73l-.11,0a.14.14,0,0,1,0-.12v0s0-.07,0-.1a.24.24,0,0,1,.06-.09l.79-1,.08-.08a.17.17,0,0,1,.12-.05h.11a.21.21,0,0,1,.12,0,.21.21,0,0,1,0,.13v1.1h.23s0,0,0,0v.17Zm-.57-1h0l-.62.82h.63v-.82Zm1.59.79s0,0,0,0H7.38s0,0,0,0v-.23a.2.2,0,0,1,0,0h.76s0,0,0,0v.23Zm1.51.66s0,0,0,0H9.33a.05.05,0,0,1,0,0v-.12a1,1,0,0,1-.64-.26.78.78,0,0,1-.22-.59.88.88,0,0,1,.06-.33.72.72,0,0,1,.18-.25A.64.64,0,0,1,9,11.45a1.29,1.29,0,0,1,.35-.1v-.06a.05.05,0,0,1,0,0h.32s0,0,0,0v.06a1.08,1.08,0,0,1,.66.27.77.77,0,0,1,.22.59.88.88,0,0,1-.06.33.68.68,0,0,1-.18.26A1.12,1.12,0,0,1,10,13a1.9,1.9,0,0,1-.36.09v.11Zm.55-1a.71.71,0,0,0,0-.21.4.4,0,0,0-.1-.18.59.59,0,0,0-.17-.13.83.83,0,0,0-.25-.06v1.16a.82.82,0,0,0,.25-.07.55.55,0,0,0,.17-.13.59.59,0,0,0,.1-.17.76.76,0,0,0,0-.21Zm-.9-.58a.71.71,0,0,0-.22.07.59.59,0,0,0-.17.13.4.4,0,0,0-.1.18.45.45,0,0,0,0,.2.76.76,0,0,0,0,.21,1,1,0,0,0,.1.17.51.51,0,0,0,.16.13l.24.07V11.63Zm2.22-.42a1.12,1.12,0,0,1,.27,0,.63.63,0,0,1,.22.09.75.75,0,0,1,.15.16.56.56,0,0,1,.05.23.44.44,0,0,1-.09.27.41.41,0,0,1-.22.17v0l.15.06a.35.35,0,0,1,.11.1.35.35,0,0,1,.08.13.45.45,0,0,1,0,.16.55.55,0,0,1-.06.26.61.61,0,0,1-.17.19.66.66,0,0,1-.25.13,1.07,1.07,0,0,1-.32,0h-.16l-.19,0L11,13.18l-.17-.07,0,0s0,0,0-.05l.08-.16s0,0,0,0h.06l.11,0,.13,0,.14,0h.13a.53.53,0,0,0,.36-.1.29.29,0,0,0,.12-.25.36.36,0,0,0,0-.1.18.18,0,0,0-.08-.09.35.35,0,0,0-.12-.07.58.58,0,0,0-.19,0h-.15l-.08,0s0,0,0-.08v-.08a.12.12,0,0,1,0-.07.09.09,0,0,1,.07,0h.17a.38.38,0,0,0,.27-.08.25.25,0,0,0,.09-.2.2.2,0,0,0-.11-.18.46.46,0,0,0-.25-.06,1.09,1.09,0,0,0-.26,0l-.22.08H11l0,0-.06-.15a.18.18,0,0,1,0-.06s0,0,0,0a1,1,0,0,1,.3-.12Z"/><path class="cls-1" d="M15,8.11a.35.35,0,0,1,.27-.43.36.36,0,0,1,.43.28s0,.14.06.25.09.35.1.4A8.05,8.05,0,0,1,15,14,8,8,0,1,1,1,6.09,8,8,0,0,1,7.87,2a.36.36,0,0,1,0,.72A7.3,7.3,0,0,0,1,12a7.29,7.29,0,0,0,13.37,1.63,7,7,0,0,0,.84-2.37,7.06,7.06,0,0,0,0-2.51,3.29,3.29,0,0,0-.08-.34L15,8.11ZM12.82,4.54a6,6,0,0,1,.57.54,5.07,5.07,0,0,1,.4.48.36.36,0,1,0,.59-.4,4.6,4.6,0,0,0-.46-.57,7.69,7.69,0,0,0-.64-.6.36.36,0,0,0-.5,0A.35.35,0,0,0,12.82,4.54Z"/><path class="cls-2" d="M9.05.76A.22.22,0,0,0,9,1l.5,1.21-.7,1.1a.21.21,0,0,0,0,.24A.24.24,0,0,0,9,3.65l1.3-.11.83,1a.24.24,0,0,0,.23.07.23.23,0,0,0,.17-.17l.29-1.27,1.22-.48a.2.2,0,0,0,.14-.19.16.16,0,0,0,0-.13.2.2,0,0,0-.08-.08L12,1.63,11.91.32a.29.29,0,0,0,0-.1.23.23,0,0,0-.11-.09.23.23,0,0,0-.24,0l-1,.86L9.28.69a.23.23,0,0,0-.23.07Zm1.5.73a.24.24,0,0,0,.2-.05L11.48.8l.06,1a.27.27,0,0,0,.11.18l.83.5-.9.35a.25.25,0,0,0-.14.16l-.22,1-.61-.75a.22.22,0,0,0-.2-.08l-1,.08L10,2.34a.22.22,0,0,0,0-.21l-.38-.89Z"/></g></g></svg>