<svg xmlns="http://www.w3.org/2000/svg" viewBox="0 0 16.58 16.58"><defs><style>.cls-1{fill:#fefefe;fill-rule:evenodd;}</style></defs><title>Asset 12</title><g id="Layer_2" data-name="Layer 2"><g id="Слой_3" data-name="Слой 3"><path class="cls-1" d="M16.08,11.44l-.76-.15a3.33,3.33,0,0,0-.16-.4l.43-.64a.63.63,0,0,0-.08-.79l-.35-.35A.62.62,0,0,0,14.37,9l-.65.43a2.83,2.83,0,0,0-.4-.17l-.15-.76a.63.63,0,0,0-.61-.5h-.5a.63.63,0,0,0-.62.5l-.15.76a3.42,3.42,0,0,0-.4.17L10.25,9a.62.62,0,0,0-.79.08l-.35.35a.62.62,0,0,0-.08.79l.43.64a3.83,3.83,0,0,0-.22.56.26.26,0,0,0,.51.14A2.45,2.45,0,0,1,10,11a.28.28,0,0,0,0-.28L9.46,10a.11.11,0,0,1,0-.13l.35-.35a.09.09,0,0,1,.13,0l.77.51A.28.28,0,0,0,11,10a2.45,2.45,0,0,1,.58-.24.29.29,0,0,0,.19-.2L12,8.64a.11.11,0,0,1,.1-.09h.5a.11.11,0,0,1,.1.09l.18.91a.27.27,0,0,0,.19.2,3,3,0,0,1,.58.24.26.26,0,0,0,.27,0l.78-.51a.09.09,0,0,1,.13,0l.35.35a.1.1,0,0,1,0,.13l-.52.77a.31.31,0,0,0,0,.28,2.48,2.48,0,0,1,.25.58.26.26,0,0,0,.2.19L16,12a.1.1,0,0,1,.08.1v.5a.11.11,0,0,1-.08.1l-.91.18a.25.25,0,0,0-.2.19,2.48,2.48,0,0,1-.25.58.29.29,0,0,0,0,.27l.52.78a.11.11,0,0,1,0,.13l-.35.35a.11.11,0,0,1-.13,0l-.78-.52a.29.29,0,0,0-.27,0,2.48,2.48,0,0,1-.58.25.25.25,0,0,0-.19.2l-.18.91a.1.1,0,0,1-.1.08h-.5A.1.1,0,0,1,12,16l-.18-.91a.26.26,0,0,0-.19-.2,2.48,2.48,0,0,1-.58-.25.31.31,0,0,0-.28,0l-.77.52a.1.1,0,0,1-.13,0l-.35-.35a.11.11,0,0,1,0-.13l.52-.78a.26.26,0,0,0,0-.27A2.45,2.45,0,0,1,9.75,13a.27.27,0,0,0-.2-.19l-.91-.18a.12.12,0,0,1-.09-.1v-.5a.11.11,0,0,1,.09-.1h0a.26.26,0,1,0-.1-.52H8.53a.63.63,0,0,0-.5.62v.5a.63.63,0,0,0,.5.61l.76.15a2.83,2.83,0,0,0,.17.4L9,14.37a.62.62,0,0,0,.08.79l.35.35a.63.63,0,0,0,.79.08l.64-.43a3.33,3.33,0,0,0,.4.16l.15.76a.63.63,0,0,0,.62.5h.5a.63.63,0,0,0,.61-.5l.15-.76a2.78,2.78,0,0,0,.4-.16l.65.43a.64.64,0,0,0,.79-.08l.35-.35a.64.64,0,0,0,.08-.79l-.43-.65a2.78,2.78,0,0,0,.16-.4l.76-.15a.63.63,0,0,0,.5-.61v-.5a.63.63,0,0,0-.5-.62Zm-9.71-4A1.07,1.07,0,1,0,5.3,6.37,1.07,1.07,0,0,0,6.37,7.44Zm0,.53A1.6,1.6,0,1,1,8,6.37,1.6,1.6,0,0,1,6.37,8Zm5.94,3.39a.95.95,0,1,0,0,1.89.9.9,0,0,0,.57-.2.28.28,0,0,1,.37,0,.26.26,0,0,1-.05.37,1.43,1.43,0,0,1-.89.3,1.47,1.47,0,1,1,1.46-1.46.26.26,0,0,1-.26.26.26.26,0,0,1-.26-.26,1,1,0,0,0-.94-1Zm-3.8-1.09a.26.26,0,0,1-.12.35,6.07,6.07,0,0,1-.59.24l-.25,1.23a.81.81,0,0,1-.8.65H6a.82.82,0,0,1-.8-.65L5,10.86a4.82,4.82,0,0,1-.74-.31l-1,.7a.82.82,0,0,1-1-.11l-.53-.53a.8.8,0,0,1-.1-1l.69-1.05a4.66,4.66,0,0,1-.3-.73L.66,7.55A.82.82,0,0,1,0,6.75V6a.83.83,0,0,1,.66-.8L1.89,5a4.78,4.78,0,0,1,.3-.74l-.69-1a.81.81,0,0,1,.1-1l.53-.53a.81.81,0,0,1,1-.1l1,.69A4.78,4.78,0,0,1,5,1.89L5.19.66A.83.83,0,0,1,6,0h.76a.81.81,0,0,1,.8.66L7.8,1.89a5.21,5.21,0,0,1,.74.3l1-.69a.8.8,0,0,1,1,.1l.53.53a.82.82,0,0,1,.11,1l-.7,1a4.82,4.82,0,0,1,.31.74l1.23.24a.82.82,0,0,1,.65.8v.76a.81.81,0,0,1-.65.8l-1.23.25a6.44,6.44,0,0,1-.24.61.27.27,0,0,1-.48-.23,4.32,4.32,0,0,0,.26-.68.26.26,0,0,1,.2-.19L12,7a.3.3,0,0,0,.24-.29V6A.28.28,0,0,0,12,5.71L10.6,5.43a.25.25,0,0,1-.2-.19A4.35,4.35,0,0,0,10,4.32a.24.24,0,0,1,0-.27l.78-1.18a.29.29,0,0,0,0-.37L10.24,2a.3.3,0,0,0-.37,0l-1.18.79a.29.29,0,0,1-.27,0,3.51,3.51,0,0,0-.92-.38.29.29,0,0,1-.19-.21L7,.76A.3.3,0,0,0,6.75.52H6a.28.28,0,0,0-.28.24L5.43,2.14a.27.27,0,0,1-.19.21,3.51,3.51,0,0,0-.92.38.29.29,0,0,1-.27,0L2.87,1.93A.3.3,0,0,0,2.5,2L2,2.5a.3.3,0,0,0,0,.37l.79,1.18a.29.29,0,0,1,0,.27,3.51,3.51,0,0,0-.38.92.27.27,0,0,1-.21.19L.76,5.71A.28.28,0,0,0,.52,6v.76A.3.3,0,0,0,.76,7l1.38.27a.29.29,0,0,1,.21.19,3.51,3.51,0,0,0,.38.92.29.29,0,0,1,0,.27L1.93,9.87a.3.3,0,0,0,0,.37l.53.53a.29.29,0,0,0,.37,0L4.05,10a.24.24,0,0,1,.27,0,4.35,4.35,0,0,0,.92.38.25.25,0,0,1,.19.2L5.71,12a.28.28,0,0,0,.28.24h.76A.3.3,0,0,0,7,12l.27-1.38a.26.26,0,0,1,.19-.2,4.73,4.73,0,0,0,.66-.25.26.26,0,0,1,.35.12Zm.13-2.44a.27.27,0,0,1-.11-.36A2.42,2.42,0,0,0,4.68,4.64a.26.26,0,1,1-.36-.38A2.94,2.94,0,0,1,9,7.71a.26.26,0,0,1-.23.15l-.12,0ZM4.08,5.58A2.67,2.67,0,0,0,4,6.37,2.42,2.42,0,0,0,6.37,8.79a2.39,2.39,0,0,0,1.42-.46.27.27,0,0,1,.37.06.28.28,0,0,1-.06.37A2.94,2.94,0,0,1,3.43,6.37a2.85,2.85,0,0,1,.16-1,.26.26,0,0,1,.33-.16A.26.26,0,0,1,4.08,5.58Z"/></g></g></svg>