<svg xmlns="http://www.w3.org/2000/svg" viewBox="0 0 18.79 18.82"><defs><style>.cls-1{fill:#fefefe;fill-rule:evenodd;}</style></defs><title>Asset 19</title><g id="Layer_2" data-name="Layer 2"><g id="Слой_3" data-name="Слой 3"><path class="cls-1" d="M15.15,10.74V2.28a2.28,2.28,0,0,0-4.56,0v8.46A4.42,4.42,0,0,0,8.8,12.88a.38.38,0,0,0,.21.48.37.37,0,0,0,.48-.21,3.59,3.59,0,0,1,1.65-1.87.37.37,0,0,0,.19-.33V2.28a1.54,1.54,0,0,1,3.08,0V11a.38.38,0,0,0,.2.33,3.63,3.63,0,1,1-5.12,4.5A.37.37,0,0,0,9,15.57.37.37,0,0,0,8.8,16a4.36,4.36,0,1,0,6.35-5.3Z"/><path class="cls-1" d="M12.87,3.21a.38.38,0,0,0-.37.37V12a2.54,2.54,0,1,0,.74,0V3.58a.38.38,0,0,0-.37-.37Zm1.8,11.25a1.8,1.8,0,1,1-1.8-1.8A1.8,1.8,0,0,1,14.67,14.46Z"/><path class="cls-1" d="M16.54,4.23h1.91A.38.38,0,0,0,18.79,4V3.72a.38.38,0,0,0-.34-.23H16.54a.37.37,0,1,0,0,.74Z"/><path class="cls-1" d="M18.45,5.19H16.54a.37.37,0,0,0,0,.74h1.91a.38.38,0,0,0,.34-.23V5.42A.38.38,0,0,0,18.45,5.19Z"/><path class="cls-1" d="M18.45,6.89H16.54a.37.37,0,1,0,0,.73h1.91a.38.38,0,0,0,.34-.22V7.12A.37.37,0,0,0,18.45,6.89Z"/><path class="cls-1" d="M18.45,8.59H16.54a.37.37,0,1,0,0,.73h1.91a.37.37,0,0,0,.34-.23V8.82A.37.37,0,0,0,18.45,8.59Z"/><path class="cls-1" d="M5,3.65A2.77,2.77,0,0,0,2.76,4.79a.37.37,0,1,0,.6.43A2,2,0,1,1,5,8.43a2,2,0,0,1-1.64-.84.38.38,0,0,0-.52-.08A.37.37,0,0,0,2.76,8,2.76,2.76,0,1,0,5,3.65Z"/><path class="cls-1" d="M5,3a.37.37,0,0,0,.37-.37V1.77a.37.37,0,0,0-.74,0v.87A.37.37,0,0,0,5,3Z"/><path class="cls-1" d="M2.08,4A.39.39,0,0,0,2.6,4a.37.37,0,0,0,0-.52L2,2.87a.37.37,0,1,0-.52.52Z"/><path class="cls-1" d="M8.4,6.41a.37.37,0,0,0,.36.37h.87A.37.37,0,0,0,10,6.41.36.36,0,0,0,9.63,6H8.76A.36.36,0,0,0,8.4,6.41Z"/><path class="cls-1" d="M7.66,4.11A.35.35,0,0,0,7.92,4l.62-.62A.37.37,0,1,0,8,2.87l-.62.62A.37.37,0,0,0,7.4,4,.37.37,0,0,0,7.66,4.11Z"/><path class="cls-1" d="M1.61,6.41A.37.37,0,0,0,1.24,6H.37A.36.36,0,0,0,0,6.41a.37.37,0,0,0,.37.37h.87A.38.38,0,0,0,1.61,6.41Z"/><path class="cls-1" d="M5,9.8a.38.38,0,0,0-.37.37V11a.37.37,0,0,0,.74,0v-.87A.38.38,0,0,0,5,9.8Z"/><path class="cls-1" d="M8.54,9.42l-.62-.61a.36.36,0,0,0-.52,0,.37.37,0,0,0,0,.52L8,9.94a.33.33,0,0,0,.26.11.34.34,0,0,0,.26-.11A.37.37,0,0,0,8.54,9.42Z"/><path class="cls-1" d="M2.08,8.81l-.62.61a.37.37,0,0,0,0,.52.36.36,0,0,0,.26.11A.33.33,0,0,0,2,9.94l.62-.61a.37.37,0,0,0,0-.52A.36.36,0,0,0,2.08,8.81Z"/><path class="cls-1" d="M9.25,14.46a.37.37,0,1,0-.37.37A.37.37,0,0,0,9.25,14.46Z"/><path class="cls-1" d="M2.24,6.41a.37.37,0,1,0,.73,0,.37.37,0,1,0-.73,0Z"/></g></g></svg>