<svg xmlns="http://www.w3.org/2000/svg" viewBox="0 0 15.3 18.22"><defs><style>.cls-1{fill:#fefefe;fill-rule:evenodd;}</style></defs><title>Asset 20</title><g id="Layer_2" data-name="Layer 2"><g id="Слой_3" data-name="Слой 3"><path class="cls-1" d="M10.61,12.52a.22.22,0,0,0-.09.3.22.22,0,0,0,.3.1,2,2,0,0,1,.94-.23,2,2,0,1,1-1.54.72.23.23,0,1,0-.35-.29,2.45,2.45,0,1,0,1.89-.88A2.54,2.54,0,0,0,10.61,12.52Z"/><path class="cls-1" d="M3.54,17.12A2.44,2.44,0,1,0,1.1,14.68a2.45,2.45,0,0,0,2.44,2.44Zm0-4.43a2,2,0,1,1-2,2A2,2,0,0,1,3.54,12.69Z"/><path class="cls-1" d="M7.65,11.76A.77.77,0,0,0,8.41,11a.76.76,0,0,0-1.52,0,.77.77,0,0,0,.76.77Zm0-1.08a.32.32,0,1,1-.32.31A.32.32,0,0,1,7.65,10.68Z"/><path class="cls-1" d="M3.54,18.22a4.93,4.93,0,0,0,2.77-.59,2.36,2.36,0,0,1,1.34-.36A2.36,2.36,0,0,1,9,17.63a4.93,4.93,0,0,0,2.77.59,3.54,3.54,0,1,0,0-7.08,1.92,1.92,0,0,1-1.42-.79A3.39,3.39,0,0,0,7.65,9.11,3.42,3.42,0,0,0,5,10.35a1.88,1.88,0,0,1-1.41.79,3.5,3.5,0,0,0-1.94.58.22.22,0,0,0-.07.31.22.22,0,0,0,.31.06,3.13,3.13,0,0,1,1.7-.51,3.09,3.09,0,1,1-2.32,1.05.22.22,0,0,0,0-.31.22.22,0,0,0-.32,0,3.54,3.54,0,0,0,2.66,5.88Zm11.31-3.54a3.1,3.1,0,1,1-6.19,0,3.15,3.15,0,0,1,3.1-3.1,3.1,3.1,0,0,1,3.09,3.1ZM4.56,11.28a4.16,4.16,0,0,0,.71-.61A3,3,0,0,1,7.65,9.56,3,3,0,0,1,10,10.67a4.16,4.16,0,0,0,.71.61h0a3.53,3.53,0,0,0-1.86,5.44,2.94,2.94,0,0,0,.49.56l.07.06-.23-.12a2.8,2.8,0,0,0-1.55-.41,2.86,2.86,0,0,0-1.56.41l-.22.12a3,3,0,0,0,.46-.48,3.56,3.56,0,0,0,0-4.43h0a3.51,3.51,0,0,0-1.71-1.14Z"/><path class="cls-1" d="M10.61,3.41a.22.22,0,1,0,.21.39,2,2,0,0,1,.94-.23,2,2,0,1,1-2,2,1.94,1.94,0,0,1,.46-1.27A.23.23,0,1,0,9.87,4a2.44,2.44,0,1,0,1.89-.89A2.42,2.42,0,0,0,10.61,3.41Z"/><path class="cls-1" d="M3.54,8A2.45,2.45,0,1,0,1.1,5.57,2.45,2.45,0,0,0,3.54,8Zm0-4.44a2,2,0,1,1-2,2A2,2,0,0,1,3.54,3.57Z"/><path class="cls-1" d="M7.65,2.64a.76.76,0,1,0-.76-.76.76.76,0,0,0,.76.76Zm0-1.08a.32.32,0,1,1-.32.32A.33.33,0,0,1,7.65,1.56Z"/><path class="cls-1" d="M3.54,9.11a4.93,4.93,0,0,0,2.77-.59,2.28,2.28,0,0,1,1.34-.36A2.28,2.28,0,0,1,9,8.52a4.93,4.93,0,0,0,2.77.59,3.55,3.55,0,0,0,0-7.09,1.91,1.91,0,0,1-1.42-.78A3.39,3.39,0,0,0,7.65,0,3.42,3.42,0,0,0,5,1.24,1.87,1.87,0,0,1,3.54,2a3.51,3.51,0,0,0-1.94.59.22.22,0,0,0-.07.31A.22.22,0,0,0,1.84,3a3.13,3.13,0,0,1,1.7-.51,3.09,3.09,0,1,1-2.32,1,.22.22,0,0,0,0-.31.22.22,0,0,0-.32,0A3.51,3.51,0,0,0,0,5.57,3.55,3.55,0,0,0,3.54,9.11ZM14.85,5.57a3.1,3.1,0,0,1-6.19,0,3.15,3.15,0,0,1,3.1-3.1,3.1,3.1,0,0,1,3.09,3.1ZM4.56,2.17a3.81,3.81,0,0,0,.71-.62A3,3,0,0,1,7.65.45,3,3,0,0,1,10,1.55a3.81,3.81,0,0,0,.71.62h0A3.53,3.53,0,0,0,8.87,7.62a3.71,3.71,0,0,0,.49.56l.07.06L9.2,8.12a2.8,2.8,0,0,0-1.55-.41,2.86,2.86,0,0,0-1.56.41l-.22.12a4.16,4.16,0,0,0,.46-.48,3.56,3.56,0,0,0,.75-2.35,3.52,3.52,0,0,0-.79-2.08h0A3.51,3.51,0,0,0,4.57,2.18Z"/></g></g></svg>