<svg xmlns="http://www.w3.org/2000/svg" viewBox="0 0 16.97 17.18"><defs><style>.cls-1{fill:#292525;}.cls-1,.cls-2,.cls-3{fill-rule:evenodd;}.cls-2{fill:#e9eaec;}</style></defs><title>Asset 7</title><g id="Layer_2" data-name="Layer 2"><g id="Слой_2" data-name="Слой 2"><path class="cls-1" d="M14.33,13.63A.34.34,0,0,0,14,14a.33.33,0,0,0,.1.23.34.34,0,0,0,.23.1.33.33,0,0,0,.23-.1.29.29,0,0,0,.1-.23.3.3,0,0,0-.1-.23A.33.33,0,0,0,14.33,13.63Z"/><path class="cls-1" d="M6.35,16.52a.59.59,0,0,1,0-1.18.59.59,0,1,1,0,1.18Zm0-1.84a1.25,1.25,0,1,0,1.24,1.25A1.25,1.25,0,0,0,6.35,14.68Z"/><path class="cls-1" d="M12.36,16.52a.59.59,0,0,1,0-1.18.59.59,0,0,1,0,1.18Zm0-1.84a1.25,1.25,0,1,0,1.25,1.25A1.24,1.24,0,0,0,12.36,14.68Z"/><path class="cls-1" d="M15.33,9.06a.32.32,0,0,0-.38.26l-.48,2.47a.32.32,0,0,1-.32.27H4.69L3.4,6.47H6.77a.32.32,0,0,0,.33-.32.33.33,0,0,0-.33-.33H3.25L2.9,4.3a1,1,0,0,0-1-.77H.33a.33.33,0,0,0,0,.66H1.94a.32.32,0,0,1,.32.25L4.47,14a.32.32,0,0,0,.32.25h8.36a.33.33,0,1,0,0-.66H5.05l-.21-.91h9.31a1,1,0,0,0,1-.8l.48-2.48A.32.32,0,0,0,15.33,9.06Z"/><path class="cls-2" d="M13.14.07,13,.78h-.66V0h.78Zm-1-.07,0,.72h-.65L11.39.1h.77ZM10.64.33l.27.67H10.7l0,0h-.19l0,0h-.1l0,0h0L10,.68h0l0,0h.05l0,0h0l0,0h0l0,0h0l0,0h.1l0,0h.15l0,0h.05Zm-1.32.82.47.54v0h0l0,0h0l0,0,0,0h0v0h0l0,0v0h0l0,0v0h0l0,0V2l0,0h0l0,0,0,0v0h0v0l0,0v0h0v0l-.56-.45h0l0,0,0,0v0l0,0,0,0,0,0,0,0v0l0,0,0,0,0,0,0,0,0,0,0,0,0,0,0,0,0,0,0,0v0l0,0,0,0,0,0,0,0v0h0l0,0,0,0,0,0Zm-1,1.21L9,2.71v0l0,0v.54L8,3.06V2.89l0,0V2.68l0,0V2.58l0,0V2.48l0,0V2.4l0,0v0ZM7.82,3.82l.7.12v.65H7.74V3.82Zm0,1.55.71-.12v.64L8,6.13H8V5.37Zm.5,1.47.63-.34h0l0,0v.11l0,0v.06l0,0v.06l0,0v0l0,0h0v0l0,0V7l0,0V7l0,0V7h0l-.56.44h0l0,0v0l0,0,0,0v0l0,0v0l0,0,0,0v0l0,0v0l0,0v0l0,0v0l0,0v0l0,0V7l0,0v0l0,0v0l0,0v0Zm.95,1.22.49-.53h0l0,0h0l0,0h0l0,0h0v0h0l0,0h0l0,0h0l0,0h0l0,0h0l0,0h0l0,0h0l0,0h0l0,0-.39.6h0l0,0h0l0,0,0,0h0l0,0h0l0,0,0,0h0l0,0,0,0h0l0,0,0,0h0l0,0,0,0,0,0h0l0,0,0,0,0,0,0,0,0,0h0l0,0Zm1.31.85.28-.67h.62l-.16.7h-.74Zm1.51.35,0-.71h.66l.08.72h-.78Zm1.55-.16-.2-.69H14l.32.64h-.11l0,0h-.59ZM15,8.43l-.42-.59h0l0,0h0l0,0h0l0,0h0v0h0v0h0l0,0h0v0h0l0,0h0l0,0h0l0,0,0,0h0l0,0,0,0h0l0,0h0l.51.51h0l0,0,0,0,0,0,0,0,0,0,0,0,0,0,0,0h0l0,0,0,0,0,0,0,0,0,0h0l0,0,0,0,0,0h0l0,0,0,0h0l0,0,0,0h0l0,0,0,0Zm1.1-1.1-.59-.42h0l0,0v0l0,0v0l0,0V6.67l0,0V6.57l0,0V6.36h0l.65.31h0v0l0,0v0l0,0v.07l0,0v0l0,0V7l0,0v0l0,0v0l0,0v0l0,0v0l0,0v0l0,0,0,0v0Zm.68-1.4-.7-.2V5.09l.72.08v.76ZM17,4.39l-.72,0V3.78l.7-.16v.77Zm-.34-1.52L16,3.15h0V3l0,0V2.73l0,0v-.1l0,0v0l.61-.38h0l0,0v0l0,0v0l0,0v0l0,0v.07l0,0v0l0,0v.08l0,0v.13l0,0v0Zm-.82-1.31L15.28,2h0V2h0l0,0V2l0,0h0l0,0,0,0h0l0,0,0,0h0l0,0,0,0h0l0,0h0v0h0l0,0,0,0h0v0h0l0,0h0v0h0L15.25,1h0l0,0,0,0,0,0,0,0h0l0,0,0,0,0,0,0,0,0,0h0l0,0,0,0,0,0,0,0,0,0,0,0,0,0,0,0,0,0,0,0v0l0,0,0,0,0,0,0,0,0,0v0ZM14.6.58l-.35.63h-.2l0,0h-.37l.23-.68h.24l0,0h.15l0,0h.1l0,0h0l0,0h.06Z"/><path class="cls-3" d="M10.6,3.38a.36.36,0,0,1,.51-.51l2.94,3a.36.36,0,0,1-.51.51Z"/><path class="cls-3" d="M13.61,2.91a.36.36,0,1,1,.52.5l-2.93,3a.36.36,0,0,1-.51,0,.35.35,0,0,1,0-.5Z"/></g></g></svg>