<svg xmlns="http://www.w3.org/2000/svg" viewBox="0 0 34.43 36.83"><defs><style>.cls-1{fill:none;stroke:#d4d4d4;stroke-miterlimit:22.93;stroke-width:0.72px;stroke-dasharray:0.72 0.72;}.cls-2{fill:#fefefe;}.cls-2,.cls-3{fill-rule:evenodd;}.cls-3{fill:#303d8d;}</style></defs><title>Asset 6</title><g id="Layer_2" data-name="Layer 2"><g id="Слой_8" data-name="Слой 8"><circle class="cls-1" cx="17.21" cy="19.62" r="16.85" transform="translate(-3.33 35.72) rotate(-86.82)"/><path class="cls-2" d="M18.59,17.27v-.92h.91a.3.3,0,0,0,.31-.3v-.92h3.05a1.7,1.7,0,0,0,1.52-1.83,1.7,1.7,0,0,0-1.52-1.83H18.28v-.91a.31.31,0,0,0-.3-.31H15.54a.31.31,0,0,0-.31.31v.91h-4c-.69,0-1.22.81-1.22,1.83s.53,1.83,1.22,1.83h2.44v.92a.29.29,0,0,0,.3.3h.92v.92a.29.29,0,0,0,.3.3h.15l-4,9.15h-.71a.31.31,0,0,0-.31.31v1.22a.31.31,0,0,0,.31.3h3.05a.31.31,0,0,0,.3-.3V27a.31.31,0,0,0-.3-.31h-.16l2-4.85v4.85h-.31a.3.3,0,0,0-.3.31v1.22a.3.3,0,0,0,.3.3h3.05a.31.31,0,0,0,.31-.3V27a.31.31,0,0,0-.31-.31H18V21.87l2,4.85h-.15a.31.31,0,0,0-.31.31v1.22a.31.31,0,0,0,.31.3h3.05a.31.31,0,0,0,.3-.3V27a.31.31,0,0,0-.3-.31h-.72l-4-9.15h.14a.3.3,0,0,0,.31-.3Zm2.74-4c0,.68-.41,1.22-.91,1.22a.76.76,0,0,1-.55-.24l1.07-1.07-.43-.43-1,1a1.54,1.54,0,0,1-.06-.43c0-.67.41-1.22.92-1.22s.91.55.91,1.22Zm2.44,0c0,.68-.41,1.22-.91,1.22a.76.76,0,0,1-.55-.24l1.07-1.07-.44-.43-.94,1a1.54,1.54,0,0,1-.06-.43c0-.67.41-1.22.92-1.22s.91.55.91,1.22Zm-4.49-1.22a2.06,2.06,0,0,0-.39,1.22,2,2,0,0,0,.39,1.22h-.39c-.29,0-.61-.52-.61-1.22s.32-1.22.61-1.22Zm-3.44-1.22h1.83v.61H15.84v-.61ZM10.66,13.3c0-.7.32-1.22.61-1.22h.46a2,2,0,0,0-.46,1.22h.61a1.74,1.74,0,0,1,.71-1.22h.6a2.45,2.45,0,0,0-.7,1.83h.61a1.75,1.75,0,0,1,1.25-1.83H18a2.41,2.41,0,0,0-.31,1.22A2.36,2.36,0,0,0,18,14.52H11.27c-.29,0-.61-.52-.61-1.22Zm3.66,1.83H19.2v.61H14.32v-.61ZM18,16.35V17H15.54v-.61ZM13.4,27.94H11v-.61H13.4v.61Zm-.51-1.22H12l3.5-8v1.54l-2.65,6.46ZM18,27.94H15.54v-.61H18v.61Zm-1.83-1.22v-.61h.61V25.5h-.61v-.61h.61v-.61h-.61V17.57h1.22v9.15Zm6.4,1.22H20.11v-.61h2.44v.61Zm-1.93-1.22L18,20.26V18.72l3.49,8Z"/><path class="cls-3" d="M28.45,0a5.65,5.65,0,1,1-5.62,5.64A5.64,5.64,0,0,1,28.45,0Z"/><path class="cls-2" d="M26.39,5.72A.54.54,0,0,1,26.44,5a.53.53,0,0,1,.76,0l.76.86L29.7,3.4a.54.54,0,0,1,.75-.13.55.55,0,0,1,.13.76l-2.13,3h0l-.09.1a.55.55,0,0,1-.76-.05Z"/></g></g></svg>