<svg xmlns="http://www.w3.org/2000/svg" viewBox="0 0 34.54 36.83"><defs><style>.cls-1,.cls-2{fill:#fefefe;}.cls-1{fill-rule:evenodd;}.cls-3{fill:none;stroke:#d4d4d4;stroke-miterlimit:22.93;stroke-width:0.72px;stroke-dasharray:0.72 0.72;}.cls-4{fill:#303d8d;}</style></defs><title>Asset 5</title><g id="Layer_2" data-name="Layer 2"><g id="Слой_8" data-name="Слой 8"><path class="cls-1" d="M13.88,20.23l-1.61,2.42a1.88,1.88,0,0,0-.33,1.08v.05a1.95,1.95,0,0,0,3.89,0v-.05a2,2,0,0,0-.33-1.08l-1.62-2.42Zm1.39,3.55a1.39,1.39,0,1,1-2.77,0v-.05a1.39,1.39,0,0,1,.23-.77l1.15-1.73L15,23a1.39,1.39,0,0,1,.23.77Z"/><path class="cls-1" d="M13.61,23.78v-.05a.24.24,0,0,1,0-.15l-.46-.31a.81.81,0,0,0-.14.46v.05a.83.83,0,0,0,.83.83v-.55A.28.28,0,0,1,13.61,23.78Z"/><path class="cls-1" d="M22.76,22.39l-1.2,2.11a1.37,1.37,0,0,0,1.19,2.05h0A1.37,1.37,0,0,0,24,24.5l-1.21-2.11Zm0,3.61h0a.82.82,0,0,1-.82-.82.87.87,0,0,1,.11-.41l.72-1.26.73,1.26a.87.87,0,0,1,.11.41A.82.82,0,0,1,22.78,26Z"/><path class="cls-1" d="M18.56,14.9l-2.18-1.53V11.85a.84.84,0,0,0-.83-.84H12.22a.84.84,0,0,0-.83.84v1.52L9.2,14.9A1.38,1.38,0,0,0,8.61,16v10.8A1.39,1.39,0,0,0,10,28.22h7.77a1.39,1.39,0,0,0,1.39-1.39V16a1.36,1.36,0,0,0-.6-1.13Zm-6.62-1.67v-.55h.56v.55Zm1.11-.55h.56v.55h-.56v-.55Zm1.11,0h.56v.55h-.56v-.55Zm1.11,0h.56v.55h-.56v-.55Zm-3-1.11h3.33a.28.28,0,0,1,.28.28v.27H11.94v-.27a.28.28,0,0,1,.28-.28Zm-2.7,3.78,2.23-1.56H16l2.23,1.56a.84.84,0,0,1,.35.68h0a2.26,2.26,0,0,0-1.52-.59h-6.4A2.25,2.25,0,0,0,9.17,16h0a.84.84,0,0,1,.35-.68Zm8.25,12.32H10a.84.84,0,0,1-.83-.84V16.92A1.7,1.7,0,0,1,10.68,16h6.4a1.7,1.7,0,0,1,1.27.55h-2v.56H18.6v.55H16.38v.56H18.6v8.6A.84.84,0,0,1,17.77,27.67Z"/><path class="cls-1" d="M17.43,19.18l-6.37-2.55a1.15,1.15,0,0,0-.36-.07,1,1,0,0,0-1,1v8.59a1,1,0,0,0,1,1h6.37a1,1,0,0,0,1-1v-6a1,1,0,0,0-.62-.91Zm.06,7a.42.42,0,0,1-.42.42H10.7a.42.42,0,0,1-.42-.42V17.54a.42.42,0,0,1,.42-.42.4.4,0,0,1,.15,0l6.38,2.55a.41.41,0,0,1,.26.39Z"/><rect class="cls-2" x="10.83" y="18.51" width="2.5" height="0.56"/><rect class="cls-2" x="10.83" y="19.62" width="2.5" height="0.56"/><path class="cls-1" d="M25.48,20.62,24.71,20V18.78h-.86l-.51-5.57a.57.57,0,0,0-.58-.53.59.59,0,0,0-.58.53l-.5,5.57h-.86V20l-.78.59a.84.84,0,0,0-.33.66v6.11a.83.83,0,0,0,.83.83H25a.84.84,0,0,0,.84-.83V21.28a.82.82,0,0,0-.34-.66Zm-1.33-.73H23.6v-.55h.55v.55ZM23,19.34v.55h-.55v-.55Zm-.3-6.08a0,0,0,0,1,.05,0l.5,5.52H22.24l.5-5.52Zm-.81,6.08v.55h-.55v-.55ZM25,27.67H20.54a.28.28,0,0,1-.27-.28V21.84H23.6v-.56H20.27a.28.28,0,0,1,.11-.22l.81-.61h3.15l.81.61a.28.28,0,0,1,.11.22H24.15v.56h1.11v5.55A.28.28,0,0,1,25,27.67Z"/><circle class="cls-3" cx="17.21" cy="19.62" r="16.85" transform="translate(-3.31 35.74) rotate(-86.89)"/><ellipse class="cls-4" cx="28.92" cy="5.64" rx="5.62" ry="5.64"/><path class="cls-1" d="M28,7.3a.55.55,0,0,1-.77,0,.54.54,0,0,1,0-.76L29.81,4a.55.55,0,0,1,.77,0,.54.54,0,0,1,0,.76Z"/><path class="cls-1" d="M29.81,7.3a.55.55,0,0,0,.77,0,.54.54,0,0,0,0-.76L28,4a.55.55,0,0,0-.77,0,.54.54,0,0,0,0,.76Z"/></g></g></svg>