<svg xmlns="http://www.w3.org/2000/svg" viewBox="0 0 35.55 36.83"><defs><style>.cls-1{fill:#fefefe;}.cls-1,.cls-2,.cls-3{fill-rule:evenodd;}.cls-2{fill:none;stroke:#d4d4d4;stroke-miterlimit:22.93;stroke-width:0.72px;stroke-dasharray:0.72 0.72;}.cls-3{fill:#303d8d;}</style></defs><title>Asset 7</title><g id="Layer_2" data-name="Layer 2"><g id="Слой_8" data-name="Слой 8"><path class="cls-1" d="M19.34,13.11a.29.29,0,1,0,.26-.52,5.33,5.33,0,0,0-6.61,8,.3.3,0,1,0,.46-.37,4.75,4.75,0,0,1,5.89-7.14Z"/><path class="cls-1" d="M21.56,14.81a.31.31,0,0,0-.13.4,4.74,4.74,0,0,1-7.14,5.88.3.3,0,0,0-.36.47,5.33,5.33,0,0,0,8-6.62A.3.3,0,0,0,21.56,14.81Z"/><path class="cls-1" d="M20.34,13.79l.21.2.21.22a.27.27,0,0,0,.22.1.26.26,0,0,0,.19-.07.29.29,0,0,0,0-.42L21,13.58l-.24-.23a.3.3,0,0,0-.42,0A.29.29,0,0,0,20.34,13.79Z"/><path class="cls-1" d="M23.66,17.57l-.39.64a1,1,0,0,0-.13.68l.12.73a.41.41,0,0,1-.17.4l-.6.44a1,1,0,0,0-.39.58l-.17.72a.44.44,0,0,1-.31.31l-.72.17a1,1,0,0,0-.58.39l-.44.6a.39.39,0,0,1-.4.16l-.73-.11a1,1,0,0,0-.68.13l-.64.39a.42.42,0,0,1-.43,0l-.64-.39a1.07,1.07,0,0,0-.52-.14h-.16l-.73.11a.39.39,0,0,1-.4-.16l-.44-.6a1,1,0,0,0-.58-.39l-.72-.17a.42.42,0,0,1-.31-.31L12.33,21a1,1,0,0,0-.39-.58l-.6-.44a.41.41,0,0,1-.17-.4l.12-.73a1,1,0,0,0-.14-.68l-.39-.64a.42.42,0,0,1,0-.43l.39-.64a1,1,0,0,0,.14-.68l-.12-.74a.43.43,0,0,1,.17-.4l.6-.43a1.06,1.06,0,0,0,.39-.58L12.5,13a.42.42,0,0,1,.31-.31l.72-.17a1.06,1.06,0,0,0,.58-.39l.44-.6a.41.41,0,0,1,.4-.17l.73.12a1,1,0,0,0,.68-.14L17,10.9a.42.42,0,0,1,.43,0l.64.39a1,1,0,0,0,.68.14l.73-.12a.41.41,0,0,1,.4.17l.44.6a1,1,0,0,0,.58.39l.72.17a.42.42,0,0,1,.31.31l.17.72a1,1,0,0,0,.39.58l.6.43a.44.44,0,0,1,.17.41l-.12.73a1,1,0,0,0,.13.68l.39.64a.42.42,0,0,1,0,.43Zm.65-.2v0a1,1,0,0,0-.14-.51l-.39-.64a.45.45,0,0,1-.06-.28l.12-.73a1,1,0,0,0-.4-1l-.61-.44a.38.38,0,0,1-.15-.24l-.18-.72a1,1,0,0,0-.74-.74L21,11.89a.37.37,0,0,1-.24-.16l-.44-.6a1,1,0,0,0-1-.4l-.74.11a.4.4,0,0,1-.28-.05l-.63-.39a1,1,0,0,0-.53-.15,1,1,0,0,0-.52.15l-.64.39a.39.39,0,0,1-.28.05L15,10.73a1,1,0,0,0-1,.4l-.44.6a.4.4,0,0,1-.24.16l-.72.18a1,1,0,0,0-.74.74l-.18.72a.4.4,0,0,1-.16.24l-.6.44a1,1,0,0,0-.4,1l.12.73a.45.45,0,0,1-.06.28l-.39.64a1,1,0,0,0-.15.52h0a1,1,0,0,0,.15.53l.39.63a.48.48,0,0,1,.06.28l-.12.74a1,1,0,0,0,.4,1l.6.44a.38.38,0,0,1,.16.23l.18.73a1,1,0,0,0,.74.74l.3.07-2.05,4.57a.28.28,0,0,0,0,.29.28.28,0,0,0,.27.12l1.64-.2,1,1.37a.33.33,0,0,0,.25.12h0a.29.29,0,0,0,.24-.17l2.1-4.67.26.17a1.07,1.07,0,0,0,.52.14,1.1,1.1,0,0,0,.53-.14l.27-.17,2.09,4.67a.32.32,0,0,0,.25.17h0a.33.33,0,0,0,.25-.12l.94-1.37,1.65.2a.28.28,0,0,0,.27-.12.28.28,0,0,0,0-.29l-2.05-4.57.29-.07a1,1,0,0,0,.74-.74l.18-.73a.36.36,0,0,1,.15-.23l.61-.44a1,1,0,0,0,.4-1l-.12-.74a.48.48,0,0,1,.06-.28l.39-.63h0a1.06,1.06,0,0,0,.14-.51Zm-2.85,9.52,1.3.15L20.9,22.88a.29.29,0,0,0-.1.09l-.44.61a.86.86,0,0,1-.13.14l1,2.2a.3.3,0,0,1-.14.39.28.28,0,0,1-.13,0,.28.28,0,0,1-.26-.18L19.7,24h-.31l-.74-.12h-.12l1.9,4.23L21.18,27a.3.3,0,0,1,.28-.12ZM14,28.09l1.89-4.23h-.13L15,24h-.3l-1,2.18a.28.28,0,0,1-.27.18.27.27,0,0,1-.12,0,.3.3,0,0,1-.14-.39l1-2.19-.14-.15L13.63,23l-.09-.09L11.68,27l1.3-.15a.3.3,0,0,1,.28.12Z"/><path class="cls-1" d="M16.21,16.43a.33.33,0,0,0,.24-.17l.76-1.67L18,16.26a.31.31,0,0,0,.23.17l1.82.21-1.34,1.24a.3.3,0,0,0-.09.28L19,20l-1.59-.89a.28.28,0,0,0-.15,0,.23.23,0,0,0-.14,0l-1.6.89.36-1.79a.3.3,0,0,0-.09-.28L14.4,16.64l1.81-.21ZM13.9,17l1.32,1.22L14.87,20a.54.54,0,0,0,.21.54.57.57,0,0,0,.31.1.48.48,0,0,0,.26-.07l1.56-.87,1.56.87a.55.55,0,0,0,.58,0,.54.54,0,0,0,.21-.54l-.35-1.75L20.52,17a.53.53,0,0,0-.3-.92l-1.77-.21-.75-1.62a.52.52,0,0,0-.49-.31.51.51,0,0,0-.48.31L16,15.86l-1.78.21a.52.52,0,0,0-.44.36A.53.53,0,0,0,13.9,17Z"/><path class="cls-2" d="M17.21,2.76A16.86,16.86,0,1,1,.36,19.62,16.86,16.86,0,0,1,17.21,2.76Z"/><path class="cls-3" d="M29.93,0a5.65,5.65,0,1,1-5.62,5.64A5.63,5.63,0,0,1,29.93,0Z"/><path class="cls-1" d="M27.86,6.14a.54.54,0,1,1,.81-.71l.76.86,1.73-2.47a.55.55,0,0,1,.76-.13.54.54,0,0,1,.13.75l-2.14,3h0l-.08.1a.54.54,0,0,1-.76-.06Z"/></g></g></svg>