<svg xmlns="http://www.w3.org/2000/svg" viewBox="0 0 20.22 17.54"><defs><style>.cls-1{fill:#e9eaec;}.cls-1,.cls-2{fill-rule:evenodd;}.cls-2{fill:#292525;}</style></defs><title>Asset 8</title><g id="Layer_2" data-name="Layer 2"><g id="Слой_2" data-name="Слой 2"><path class="cls-1" d="M8.69,0l0,.67H8V0h.7Zm-1,0,0,.67H7.07L7,.06h.7ZM6.29.18l.14.66H6.25l0,0H6l0,0H5.86L5.81,1h0L5.6.36h.06l0,0h0l0,0h.14l0,0h.19l.05,0h.06ZM4.94.6l.26.63H5.14l0,0,0,0,0,0H5l0,0,0,0,0,0,0,0,0,0,0,0,0,0,0,0,0,0h0L4.3.9h0l0,0,0,0,.05,0,0,0,0,0,.05,0,0,0,0,0,0,0,0,0,0,0,0,0,0,0,0,0Zm-1.25.66.37.56h0l0,0,0,0,0,0,0,0,0,0,0,0,0,0,0,0,0,0,0,0,0,0,0,0,0,0,0,0h0l-.41-.53h0l0,0,0,0,0,0,0,0,0,0,0,0,0,0,0,0,0,0,0,0,0,0,0,0,0,0,0,0Zm-1.11.86L3,2.61H3l0,0,0,0,0,0,0,0,0,0,0,0,0,0,0,0,0,0,0,0,0,0,0,0,0,0,0,0,0,0-.5-.45,0,0,0,0,0,0,0,0,0,0,0,0,0,0,0,0,0,0,0,0,0,0,0,0,0,0,0,0,0,0Zm-1,1,.54.4,0,0,0,0,0,0,0,0,0,0,0,0,0,0,0,0,0,0,0,0,0,0,0,0,0,0,0,0,0,0-.57-.36,0,0,0,0,0,0,0,0,0,0,0,0,0,0,0,0,0,0,0,0,0,0,0,0,0,0,0,0,0,0ZM.88,4.35l.6.31v0l0,0,0,0,0,0,0,0,0,0,0,0,0,0V5l0,0,0,0,0,0,0,0v0l0,0L.59,5V5l0,0,0,0,0-.05,0,0,0,0,0-.05,0,0,0,0,0,0,0,0,0,0,0,0,0,0v0ZM.35,5.65l.65.2v0l0,0v.13l0,0v.36h0L.17,6.33V6.07L.25,6V5.88l0,0v0l0,0V5.65ZM.06,7l.67.08v.63h0L0,7.73H0V7ZM0,8.43l.68,0h0V9l-.67.1v-.7Zm.2,1.4.65-.15h0V10l0,0v.13l0,0v.09l0,0-.65.21v0l0,0v-.1l0-.05v0l0-.05V10l0,0V9.84Zm.43,1.34.62-.27v0l0,0,0,0,0,0v0l0,0,0,0,0,0,0,0,0,0,0,0,0,0,0,0,0,0,0,0-.6.31,0,0,0,0,0-.05,0,0,0,0,0,0,0,0,0,0,0-.05,0,0,0-.05,0,0,0,0,0,0v0Zm.66,1.24L1.85,12l0,0,0,0,0,0,0,0,0,0,0,0,0,0,0,0,0,0,0,0,0,0,0,0,0,0,0,0,0,0L1.7,13l0,0,0,0,0,0,0,0,0,0,0,0,0,0,0,0,0,0,0,0,0,0,0,0,0,0,0,0,0,0Zm.87,1.11.49-.46h0l0,0,0,0,0,0,0,0,0,0,0,0,0,0,0,0,0,0,0,0,0,0,0,0,0,0,0,0h0l-.45.5h0l0,0,0,0,0,0,0,0,0,0,0,0,0,0,0,0,0,0,0,0,0,0,0,0,0,0,0,0Zm1,.94.41-.54h0l0,0,0,0,0,0,0,0,0,0,0,0,0,0,0,0,0,0,0,0,0,0,0,0,0,0,0,0,0,0-.35.57,0,0,0,0,0,0,0,0,0,0,0,0,0,0,0,0,0,0,0,0,0,0,0,0,0,0,0,0,0,0Zm1.2.75.3-.61,0,0,0,0,0,0,0,0,0,0,0,0H5l0,0,0,0,0,0,0,0h0l0,0,0,0h0L5,15.49H5l0,0h0l0,0,0,0,0,0,0,0,0,0,0,0,0,0,0,0-.05,0,0,0,0,0Zm1.31.52.19-.65H6l0,0h.49l-.13.66H6l0,0H5.85l0,0H5.71ZM7.09,16l.07-.67h.65l0,.68h-.7ZM8.5,16l-.05-.67h.64L9.2,16H8.5Zm1.39-.21-.16-.66H10l0,0h.13l.05,0h.08l0,0h.05l.23.64h-.06l0,0h-.05l0,0h0l-.05,0h-.09l0,0H10l0,0h-.1ZM12.61,1.48,12.22,2l0,0,0,0,0,0,0,0,0,0,0,0,0,0,0,0,0,0,0,0,0,0,0,0,0,0,0,0h0L12,1.1h0l0,0,0,0,0,0,0,0,0,0,0,0,0,0,0,0,0,0,0,0,0,0,0,0,0,0,0,0ZM11.4.77l-.29.61,0,0,0,0,0,0h0l0,0,0,0,0,0h0l0,0,0,0h-.05l0,0,0,0h-.07l.23-.64h0l0,0,.05,0,0,0,.05,0h0l.05,0,0,0,.05,0,0,0,.05,0,0,0,.05,0,0,0,0,0ZM10.08.28,9.91.93H9.78l0,0H9.28L9.39.12h.36l.05,0H10l0,0Z"/><path class="cls-2" d="M6.8,4.84a.36.36,0,0,1-.36-.35h0a.36.36,0,0,1,.71,0h0A.35.35,0,0,1,6.8,4.84Z"/><path class="cls-2" d="M6.8,9.31A.36.36,0,0,1,6.44,9V5.81a.36.36,0,1,1,.71,0V9A.35.35,0,0,1,6.8,9.31Z"/><path class="cls-2" d="M10.77,13.42a.38.38,0,0,1,.36.36.36.36,0,0,1-.36.35.34.34,0,0,1-.35-.35.36.36,0,0,1,.35-.36Z"/><path class="cls-2" d="M15,7.68a.76.76,0,0,0-.75.75.75.75,0,0,0,.75.74h3.74a.74.74,0,0,0,.74-.74.75.75,0,0,0-.74-.75Zm4.48-1.45a.74.74,0,0,0-.74-.74H15a.75.75,0,0,0-.75.74A.76.76,0,0,0,15,7h3.74a.75.75,0,0,0,.74-.75ZM17.67,3.29H15a.76.76,0,0,0-.75.75.75.75,0,0,0,.75.74h2.64A.74.74,0,0,0,18.41,4a.75.75,0,0,0-.74-.75Zm-3.39,7.33a.76.76,0,0,0,.75.75h2.64a.75.75,0,0,0,.74-.75.74.74,0,0,0-.74-.74H15a.75.75,0,0,0-.75.74ZM5.61,3.29v8H8v-8ZM20.22,8.43a1.45,1.45,0,0,1-1.31,1.44,1.48,1.48,0,0,1,.21.75,1.45,1.45,0,0,1-1.45,1.45H13.55l1.06,2.19A2.46,2.46,0,0,1,14.26,17l-.4.47a.33.33,0,0,1-.27.12.37.37,0,0,1-.27-.13l-1.82-2.2a.36.36,0,0,1,.55-.45l1.55,1.88.13-.15A1.77,1.77,0,0,0,14,14.57l-1.35-2.8a.42.42,0,0,1,0-.16V11a1.92,1.92,0,0,0-1.92-1.92h-.32a.36.36,0,1,1,0-.71h.32A2.63,2.63,0,0,1,13.29,11v.4h.49a1.45,1.45,0,0,1-.2-.75,1.43,1.43,0,0,1,.5-1.09,1.46,1.46,0,0,1,0-2.2,1.45,1.45,0,0,1-.5-1.1,1.41,1.41,0,0,1,.5-1.09,1.45,1.45,0,0,1-.5-1.1,1.48,1.48,0,0,1,.2-.75H10.84a4.2,4.2,0,0,0-1.56.3l-.58.23v6.89l1.49,1.8a.36.36,0,0,1,0,.5.34.34,0,0,1-.5,0l-1-1.18a.37.37,0,0,1-.32.19H5.25a.36.36,0,0,1-.35-.36V2.94a.35.35,0,0,1,.35-.35H8.34a.35.35,0,0,1,.36.35v.12L9,2.93a4.94,4.94,0,0,1,1.82-.34h6.83A1.45,1.45,0,0,1,19.12,4a1.48,1.48,0,0,1-.21.75,1.44,1.44,0,0,1,.8,2.54A1.46,1.46,0,0,1,20.22,8.43Z"/></g></g></svg>