<svg xmlns="http://www.w3.org/2000/svg" viewBox="0 0 29.14 29.14"><defs><style>.cls-1{fill:#303d8d;}.cls-2{fill:#fefefe;fill-rule:evenodd;}</style></defs><title>Asset 2</title><g id="Layer_2" data-name="Layer 2"><g id="Слой_5" data-name="Слой 5"><circle class="cls-1" cx="14.57" cy="14.57" r="14.57"/><path class="cls-2" d="M7.17,16.58H5.88v2.05h.21V16.78H7.17v-.2Zm2.08,0v.47a1,1,0,0,0-.88-.51,1.07,1.07,0,0,0,0,2.14,1,1,0,0,0,.88-.51v.46h.21V16.58Zm-.86,1.9a.88.88,0,1,1,.86-.87.86.86,0,0,1-.86.87Zm2.79-1.94a1,1,0,0,0-.88.52v-.48h-.21v2.87h.21V18.16a1,1,0,0,0,.88.52,1.07,1.07,0,0,0,0-2.14Zm0,1.94a.88.88,0,1,1,.87-.87.86.86,0,0,1-.87.87Zm3.37-1.9v.47a1,1,0,0,0-.88-.51,1.07,1.07,0,0,0,0,2.14,1,1,0,0,0,.88-.51v.46h.21V16.58Zm-.86,1.9a.88.88,0,1,1,.86-.87.86.86,0,0,1-.86.87Zm3.19-1.9v.93H15.59v-.93h-.21v2.05h.21V17.7h1.28v.93h.21V16.58Zm2.27,0h-1.7v.2h.75v1.85h.21V16.78h.74v-.2Zm1.88,0-1.3,1.69V16.58h-.21v2.05h.18L21,16.94v1.69h.21V16.58Zm2.23,0h-.81a.64.64,0,0,0-.67.63.63.63,0,0,0,.58.62l-.65.8H22l.65-.8h.44v.8h.2V16.58Zm-.81,1.06a.43.43,0,1,1,0-.86h.61v.86Zm-12.82,4,.69-1v-.2H8.66v.2h1.4l-.72,1,.09.15h.06a.66.66,0,1,1,0,1.32.7.7,0,0,1-.73-.44l-.18.11a.92.92,0,0,0,.91.54.88.88,0,0,0,.95-.87.85.85,0,0,0-.83-.85Zm3.71-.37H12.05v2.05h.21V21.51h1.07v-.2Zm1.23,2.09a1.07,1.07,0,1,0-1.08-1.07,1.06,1.06,0,0,0,1.08,1.07Zm0-.19a.88.88,0,1,1,.86-.88.87.87,0,0,1-.86.88Zm3.16-.05V21.31H16.28v1a1.31,1.31,0,0,1-.22.83h-.24v.75H16v-.55H17.8v.55H18v-.75Zm-1.41,0a1.6,1.6,0,0,0,.18-.83v-.82h1v1.65Zm3.87-1.85v.46a1,1,0,0,0-.88-.51,1.07,1.07,0,0,0,0,2.14,1,1,0,0,0,.88-.51v.47h.21V21.31Zm-.86,1.9a.88.88,0,1,1,.86-.88A.87.87,0,0,1,19.32,23.21Z"/><path class="cls-2" d="M15.67,5.23A.15.15,0,0,0,15.8,5a2.76,2.76,0,0,0-3.42,4.16.16.16,0,0,0,.12.06.13.13,0,0,0,.1,0,.14.14,0,0,0,0-.21,2.47,2.47,0,0,1,.21-3.24A2.45,2.45,0,0,1,15.67,5.23Z"/><path class="cls-2" d="M16.82,6.11a.14.14,0,0,0-.07.2,2.45,2.45,0,0,1-3.69,3,.16.16,0,0,0-.22,0,.15.15,0,0,0,0,.21,2.73,2.73,0,0,0,1.69.58,2.75,2.75,0,0,0,2.46-4A.15.15,0,0,0,16.82,6.11Z"/><path class="cls-2" d="M16.18,5.58l.12.1.1.11a.14.14,0,0,0,.11.06.21.21,0,0,0,.11,0,.17.17,0,0,0,0-.22l-.12-.12-.12-.12a.16.16,0,0,0-.21.23Z"/><path class="cls-2" d="M17.9,7.53l-.2.33a.54.54,0,0,0-.07.35l.06.38a.24.24,0,0,1-.08.21L17.3,9a.5.5,0,0,0-.2.3L17,9.7a.22.22,0,0,1-.16.16l-.38.09a.5.5,0,0,0-.3.2l-.22.31a.24.24,0,0,1-.21.08l-.38-.06a.53.53,0,0,0-.35.07l-.33.2a.22.22,0,0,1-.22,0l-.33-.2a.52.52,0,0,0-.27-.07h-.08l-.38.06a.24.24,0,0,1-.21-.08L13,10.15a.48.48,0,0,0-.3-.2l-.37-.09a.22.22,0,0,1-.16-.16L12,9.32a.55.55,0,0,0-.2-.3l-.31-.22a.21.21,0,0,1-.08-.21l.06-.38a.6.6,0,0,0-.07-.35l-.21-.33a.22.22,0,0,1,0-.22L11.44,7a.61.61,0,0,0,.07-.35l-.06-.38A.21.21,0,0,1,11.53,6l.31-.23a.53.53,0,0,0,.2-.29l.09-.38A.22.22,0,0,1,12.29,5l.37-.09a.52.52,0,0,0,.3-.2l.23-.31a.21.21,0,0,1,.21-.08l.38.06a.61.61,0,0,0,.35-.07l.33-.2a.18.18,0,0,1,.22,0l.33.2a.6.6,0,0,0,.35.07l.38-.06a.21.21,0,0,1,.21.08l.22.31a.55.55,0,0,0,.3.2l.38.09a.22.22,0,0,1,.16.16l.09.38a.46.46,0,0,0,.2.29l.31.23a.24.24,0,0,1,.08.21l-.06.38A.54.54,0,0,0,17.7,7l.2.33a.22.22,0,0,1,0,.22Zm.34-.1v0a.5.5,0,0,0-.08-.26L18,6.82a.37.37,0,0,1,0-.15L18,6.29a.54.54,0,0,0-.2-.5l-.32-.22a.22.22,0,0,1-.08-.13l-.09-.37a.49.49,0,0,0-.38-.38l-.38-.09a.34.34,0,0,1-.12-.09l-.23-.31a.51.51,0,0,0-.5-.21l-.38.06a.22.22,0,0,1-.14,0l-.33-.21a.56.56,0,0,0-.54,0L14,4a.25.25,0,0,1-.15,0L13.44,4a.52.52,0,0,0-.5.21l-.22.31a.3.3,0,0,1-.13.09l-.37.09a.49.49,0,0,0-.38.38l-.09.37a.3.3,0,0,1-.09.13l-.31.22a.52.52,0,0,0-.21.5l.06.38a.25.25,0,0,1,0,.15L11,7.15a.52.52,0,0,0-.07.27h0a.52.52,0,0,0,.07.27l.21.33a.22.22,0,0,1,0,.14l-.06.38a.53.53,0,0,0,.21.51l.31.22a.34.34,0,0,1,.09.12l.09.38a.49.49,0,0,0,.38.38l.15,0-1,2.36a.14.14,0,0,0,0,.15.14.14,0,0,0,.14.06l.86-.1.49.71a.13.13,0,0,0,.12.06h0a.14.14,0,0,0,.12-.09l1.08-2.41.14.08a.5.5,0,0,0,.54,0l.14-.08,1.08,2.41a.15.15,0,0,0,.13.09h0a.16.16,0,0,0,.13-.06l.49-.71.85.1a.13.13,0,0,0,.14-.06.16.16,0,0,0,0-.15l-1.06-2.36.15,0a.49.49,0,0,0,.38-.38l.09-.38a.23.23,0,0,1,.08-.12l.32-.22a.55.55,0,0,0,.2-.51l-.06-.38A.32.32,0,0,1,18,8l.2-.33h0a.5.5,0,0,0,.08-.26Zm-1.48,4.92.68.08-1-2.16s0,0,0,.05l-.23.32-.06.07.51,1.14a.15.15,0,0,1-.08.2H16.5a.14.14,0,0,1-.14-.09l-.51-1.13h-.16l-.38-.06h-.06l1,2.19.39-.56a.15.15,0,0,1,.14-.06ZM12.91,13l1-2.19h-.07l-.38.06h-.15L12.79,12a.16.16,0,0,1-.14.09h-.07a.15.15,0,0,1-.07-.2l.5-1.13-.07-.08-.22-.32-.05,0-1,2.15.67-.08a.14.14,0,0,1,.14.06Z"/><path class="cls-2" d="M14.05,6.94a.16.16,0,0,0,.12-.09l.4-.86.39.86a.18.18,0,0,0,.13.09l.94.11-.7.64a.17.17,0,0,0-.05.15l.19.92-.83-.46-.07,0-.08,0-.82.46.18-.92a.16.16,0,0,0,0-.15l-.7-.64.94-.11Zm-1.19.29.68.63-.18.91a.26.26,0,0,0,.11.27.23.23,0,0,0,.16.06.33.33,0,0,0,.13,0l.81-.45.81.45a.26.26,0,0,0,.29,0,.26.26,0,0,0,.11-.27l-.18-.91.68-.63a.27.27,0,0,0-.16-.47l-.91-.11-.39-.84a.27.27,0,0,0-.25-.16.26.26,0,0,0-.25.16l-.39.84L13,6.76a.27.27,0,0,0-.23.18A.28.28,0,0,0,12.86,7.23Z"/></g></g></svg>