<svg xmlns="http://www.w3.org/2000/svg" viewBox="0 0 16.62 16.53"><defs><style>.cls-1,.cls-2{fill-rule:evenodd;}.cls-2{fill:#e9eaec;}</style></defs><title>Asset 6</title><g id="Layer_2" data-name="Layer 2"><g id="Слой_2" data-name="Слой 2"><path class="cls-1" d="M15.64,1.52a.31.31,0,0,0-.3.09L14,3h-.29L13,2.26h0L14.28,1a.34.34,0,0,0,.08-.29.32.32,0,0,0-.21-.23,3,3,0,0,0-1-.16,3.09,3.09,0,0,0-2.54,1.31,3.07,3.07,0,0,0-.48,2.64L7.84,6.53,4,2.67V1.91a.33.33,0,0,0-.15-.27L1.65.32a.32.32,0,0,0-.4,0l-.87.87a.35.35,0,0,0,0,.4L1.65,3.85A.33.33,0,0,0,1.92,4h.75L6.51,7.86l-2.29,2.3a3.12,3.12,0,0,0-3.94,3,3.37,3.37,0,0,0,.16,1,.37.37,0,0,0,.23.21A.31.31,0,0,0,1,14.31L2.26,13h0l.73.76v.67L1.66,15.81a.35.35,0,0,0-.09.31.36.36,0,0,0,.21.24,3,3,0,0,0,1,.17,3.13,3.13,0,0,0,2.6-1.38,3.38,3.38,0,0,0,.5-2.81l1.89-2,.44.49-.2.21a.33.33,0,0,0,0,.47.31.31,0,0,0,.45,0l.18-.19,4.07,4.59h0a1.88,1.88,0,0,0,2.73,0,2,2,0,0,0,.52-1v-.8a2,2,0,0,0-.52-1h0L11,8.9l.18-.19a.35.35,0,0,0,0-.47.32.32,0,0,0-.46,0l-.19.2L10.09,8,12,6a2.91,2.91,0,0,0,.83.11A3.25,3.25,0,0,0,16,3.32v-1a3,3,0,0,0-.13-.54.3.3,0,0,0-.23-.22Zm-13,1.57A.34.34,0,0,0,2.37,3H1.58L.35,1.14,1,.6,3,1.71v.71a.33.33,0,0,0,.1.23l4.37,4L8,7l3.19-2.89a.28.28,0,0,0,.09-.32,2.27,2.27,0,0,1,.37-2.26,2.84,2.84,0,0,1,2.26-1h.31l-1.08,1a.29.29,0,0,0-.1.22V1.66a.35.35,0,0,0,.1.24l1,1A.33.33,0,0,0,14.3,3h1a.37.37,0,0,0,.25-.1l1.09-1.1c0,.1,0,.2,0,.3a2.77,2.77,0,0,1-2.76,2.77A2.89,2.89,0,0,1,13,4.73a.33.33,0,0,0-.35.08L5.8,11.66a.36.36,0,0,0-.08.36A2.77,2.77,0,0,1,3.1,15.67l-.3,0,1.1-1.09a.35.35,0,0,0,.1-.24v-1a.39.39,0,0,0-.1-.25l-1-1a.35.35,0,0,0-.24-.1H1.61a.34.34,0,0,0-.24.09l-1.1,1a2.46,2.46,0,0,1,1.14-2.31,3,3,0,0,1,2.51-.34.36.36,0,0,0,.36-.08L7.47,7.48,7,7,2.61,3.09Zm8.22,6.16,4.54,4.17a1.31,1.31,0,0,1-1.85,1.86L9.34,10.74l1.49-1.49Zm-.48-.44L8.9,10.26l-.45-.48L9.86,8.37Z"/><path class="cls-2" d="M9.71.39,9.58,1H9L9.11.28h.6ZM8.5.21l0,.59H8.13l0,.22H8V0h.15l0,.2H8.5ZM7.28.22l0,.59H6.77L6.67.3h.61ZM6.07.43,6.22,1H6l0,0H5.85l0,0H5.73l0,0h0L5.48.6h0l0,0h0l0,0h.09l0,0H5.9l0,0h.13ZM4.91.82l.24.54h0l0,0h0l0,0,0,0,0,0,0,0,0,0h0l0,0,0,0,0,0,0,0,0,0-.28-.52,0,0,0,0,.05,0,0,0,0,0,0,0,0,0,0,0,.05,0,0,0,0,0,0,0,.05,0ZM1.31,4l.51.29,0,0,0,0,0,0,0,0,0,0,0,0,0,0,0,0,0,0,0,0,0,0,0,0v0L1,4.55l0,0,0,0,0,0,0-.05,0,0,0,0,0,0,0,0,0,0,0,0,0,0,0,0,0,0ZM.78,5.12l.55.21v0l0,0,0,0v0l0,0v.09l0,0v0l0,0v.13h0L.58,5.7h0v0l0-.05v0l0,0v0l0,0v0l0,0,0,0v0l0,0,0,0v0ZM.43,6.29,1,6.41V7h0L.33,6.89h0v-.6ZM.27,7.5l.59,0v.21l.15,0V8l-.15,0h0l-.59,0h0L0,8.05V7.73l.26-.05V7.5Zm0,1.22.58-.06v.56L.4,9.33V8.72Zm6.18,6.75.11-.58h.56l-.07.59h-.6Zm1.21.14,0-.58h.11l0,0h.26l0,0h.12l0,.59H8.19l0,.38H7.82l-.05-.38H7.7Zm1.22,0L8.85,15h.56l.12.57H8.92Zm1.2-.24L10,14.75h0l0,0h.12l0,0h.08l0,0h0l0,0h.1l.21.55h-.07l0,0h0l-.05,0h0l0,0h-.05l0,0h-.05l0,0h-.12Zm1.15-.43L11,14.36h.05l0,0,0,0,0,0,0,0,0,0,0,0,0,0,0,0,0,0,0,0,0,0,0,0,.29.51,0,0,0,0,0,0,0,0,0,0,0,0,0,0,0,0-.05,0,0,0,0,0,0,0,0,0Zm3.5-3.3-.52-.28h0l0,0,0,0,0,0,0,0,0,0,0,0,0,0,0,0,0,0v0l0,0,0,0v0L15,11v0l0,0,0,0,0,0,0,0,0,0,0,0,0,0,0,.05,0,0,0,0,0,.05,0,0Zm.5-1.12-.56-.19v0l0-.05v-.08l0,0V10l0-.05V9.83l0-.05v0h0l.57.15h0l0,0V10l0,.05v.09l0,0v0l0,0v0l0,0v.08Zm.31-1.18L15,9.19V8.63h0l.58.06h0v.6ZM15,8h0V7.77l.11,0V7.5l.59,0v.25l-.7,0v0l1,0V8l-1,0Zm.63-1.15L15,6.94V6.38l.58-.13v.59Z"/><rect x="3.95" y="8.5" width="2.56" height="0.66" transform="translate(-4.71 6.28) rotate(-45)"/><rect x="7.06" y="6.95" width="0.66" height="2.56" transform="translate(-3.65 7.63) rotate(-45.01)"/><rect x="7.97" y="6" width="0.66" height="2.56" transform="translate(-2.72 8.01) rotate(-45)"/><path class="cls-1" d="M5.08,11.34a.36.36,0,1,1-.51-.5L7.19,8.17a.36.36,0,0,1,.5,0,.35.35,0,0,1,0,.51Z"/><path class="cls-1" d="M8.78,7.6a.36.36,0,0,1-.51,0,.35.35,0,0,1,0-.5l2.61-2.68a.36.36,0,0,1,.52.51Z"/><path class="cls-1" d="M14.82,14.33a.36.36,0,1,1-.51.5l-3.43-3.49a.37.37,0,0,1,0-.51.36.36,0,0,1,.51,0Z"/></g></g></svg>