<svg xmlns="http://www.w3.org/2000/svg" viewBox="0 0 34.43 36.83"><defs><style>.cls-1{fill:none;stroke:#d4d4d4;stroke-miterlimit:22.93;stroke-width:0.72px;stroke-dasharray:0.72 0.72;}.cls-2{fill:#fefefe;}.cls-2,.cls-3{fill-rule:evenodd;}.cls-3{fill:#303d8d;}</style></defs><title>Asset 4</title><g id="Layer_2" data-name="Layer 2"><g id="Слой_8" data-name="Слой 8"><circle class="cls-1" cx="17.21" cy="19.62" r="16.85" transform="translate(-3.33 35.72) rotate(-86.83)"/><path class="cls-2" d="M20,17.15a.27.27,0,0,0-.28.28.28.28,0,0,0,.28.28.29.29,0,0,0,.28-.28A.28.28,0,0,0,20,17.15Z"/><path class="cls-2" d="M14.91,22.25a.29.29,0,0,0-.28.28.29.29,0,0,0,.57,0A.29.29,0,0,0,14.91,22.25Z"/><path class="cls-2" d="M24.31,14.52a.3.3,0,0,0-.27.08l-1.16,1.17h-.56l-.61-.64v-.56l1.14-1.17a.29.29,0,0,0,.08-.26.29.29,0,0,0-.19-.2,2.68,2.68,0,0,0-.89-.15,2.82,2.82,0,0,0-2.72,3.54L17.06,18.4l-3.44-3.46v-.68a.28.28,0,0,0-.14-.24l-2-1.19a.3.3,0,0,0-.35,0l-.79.8a.27.27,0,0,0,0,.34l1.19,2a.28.28,0,0,0,.24.13h.68l3.44,3.46-2.06,2.06a2.8,2.8,0,0,0-3.53,2.71,3,3,0,0,0,.14.9.28.28,0,0,0,.21.18.28.28,0,0,0,.26-.07l1.16-1.18h.56l.64.64v.56l-1.17,1.17a.29.29,0,0,0-.08.26.29.29,0,0,0,.19.2,2.74,2.74,0,0,0,.9.15,2.82,2.82,0,0,0,2.71-3.54L17.45,22l.38.41-.17.17a.28.28,0,0,0,.4.4l.15-.16,3.56,3.87h0a1.68,1.68,0,0,0,2.84-.86v-.67a1.69,1.69,0,0,0-.46-.86h0l-3.87-3.55.16-.15a.28.28,0,1,0-.4-.4l-.17.17L19.46,20l1.66-1.67a2.57,2.57,0,0,0,.73.1A2.81,2.81,0,0,0,24.62,16v-.88a2.37,2.37,0,0,0-.11-.46.28.28,0,0,0-.2-.18ZM12.74,15.65a.28.28,0,0,0-.2-.08h-.63l-1-1.66.49-.48,1.66,1v.64a.32.32,0,0,0,.08.2l3.53,3.53-.4.4-3.53-3.54Zm7.15,5.48,3.88,3.56a1.13,1.13,0,0,1,0,1.59,1.11,1.11,0,0,1-1.58,0l-3.57-3.87,1.28-1.28Zm-.42-.38L18.23,22l-.38-.41,1.21-1.21.41.38Zm2.38-2.9a2.18,2.18,0,0,1-.72-.12.29.29,0,0,0-.29.07c-1.41,1.4-4.44,4.44-5.56,5.56a.29.29,0,0,0-.07.28,2.25,2.25,0,0,1-2.12,3l-.25,0,.89-.88a.25.25,0,0,0,.09-.2v-.79a.25.25,0,0,0-.09-.2l-.8-.81a.28.28,0,0,0-.2-.08h-.79a.28.28,0,0,0-.2.08l-.89.9a2.09,2.09,0,0,1,0-.25,2.25,2.25,0,0,1,3-2.13.26.26,0,0,0,.29-.07l5.56-5.55a.29.29,0,0,0,.07-.29,2.25,2.25,0,0,1,2.13-3l.25,0-.87.88a.28.28,0,0,0-.09.2v.8a.27.27,0,0,0,.08.19l.78.8a.27.27,0,0,0,.2.09H23a.32.32,0,0,0,.2-.08l.88-.89a1.93,1.93,0,0,1,0,.24A2.24,2.24,0,0,1,21.85,17.85Z"/><path class="cls-2" d="M19,18l-3.51,3.51a.28.28,0,1,0,.4.4l3.51-3.52a.27.27,0,0,0,0-.39A.28.28,0,0,0,19,18Z"/><path class="cls-2" d="M22.57,25.49a.29.29,0,0,0,.4,0,.27.27,0,0,0,0-.39l-2.53-2.53a.29.29,0,0,0-.4,0,.28.28,0,0,0,0,.4Z"/><path class="cls-2" d="M5.24,18.3a12.15,12.15,0,0,1,24.3,0h-.72A11.43,11.43,0,1,0,6,18.3Z"/><path class="cls-2" d="M6,20.42a11.43,11.43,0,0,0,22.86,0h.72a12.15,12.15,0,0,1-24.3,0Z"/><path class="cls-3" d="M27.63,0A5.65,5.65,0,1,1,22,5.64,5.64,5.64,0,0,1,27.63,0Z"/><polygon class="cls-2" points="28.19 17.28 30.28 17.28 29.19 19.2 28.19 17.28"/><path class="cls-2" d="M25.55,6.14a.55.55,0,0,1,.05-.77.54.54,0,0,1,.76.06l.76.86,1.74-2.47a.54.54,0,1,1,.88.62l-2.13,3h0l-.09.1a.54.54,0,0,1-.76-.06Z"/></g></g></svg>